<svg width="100" height="100" viewBox="0 0 100 100" fill="none" xmlns="http://www.w3.org/2000/svg">
<path d="M95.3264 28.876C94.8054 29.6416 94.279 30.4073 93.742 31.1729C96.2303 36.947 97.6127 43.3114 97.6127 49.9947C97.6127 76.292 76.2973 97.6074 50 97.6074C23.7027 97.6074 2.38728 76.292 2.38728 49.9947C2.38728 42.8754 3.95045 36.1229 6.75245 30.0564C6.2633 29.413 5.77946 28.775 5.30626 28.1423C6.05594 27.7329 6.65143 27.0257 6.85347 26.2016C7.2097 26.7067 7.56594 27.2065 7.91685 27.7063C15.9134 12.6436 31.7578 2.38197 49.9947 2.38197C68.6463 2.38197 84.7937 13.1114 92.6042 28.7325C92.9923 28.1423 93.3805 27.5468 93.7686 26.9513C93.8165 27.0045 93.859 27.0576 93.9122 27.1108C94.2312 27.4298 94.5449 27.7541 94.8373 28.0944C94.8905 28.1635 94.9436 28.2327 94.9915 28.3071C95.05 28.3975 95.1191 28.4826 95.1829 28.5676C87.1544 11.6759 69.9436 0 50 0C22.3841 0 0 22.3841 0 50C0 77.6159 22.3841 100 50 100C77.6159 100 100 77.6159 100 50C100 42.45 98.3252 35.2935 95.3264 28.876Z" fill="white"/>
<path d="M6.85331 26.2016C6.64595 27.0311 6.05577 27.7382 5.30609 28.1423C5.77929 28.775 6.26313 29.413 6.75229 30.0564C7.11915 29.2588 7.5126 28.4719 7.922 27.701C7.56045 27.2065 7.20422 26.7067 6.85331 26.2016Z" fill="white"/>
<path d="M94.8375 28.0891C94.545 27.7488 94.2313 27.4245 93.9123 27.1055C93.8592 27.0523 93.8166 26.9991 93.7688 26.946C93.3806 27.5468 92.9925 28.1369 92.6044 28.7271C93.0031 29.53 93.3859 30.3434 93.7422 31.1676C94.2792 30.4019 94.8056 29.6363 95.3266 28.8707C95.2788 28.7643 95.2309 28.6633 95.1777 28.557C95.1139 28.4719 95.0448 28.3868 94.9863 28.2964C94.9385 28.2273 94.8853 28.1582 94.8375 28.0891Z" fill="white"/>
<path d="M68.2902 58.0232C63.7921 62.2395 58.454 67.0991 52.951 71.1612L52.6692 71.3686L52.4619 71.0868C52.2173 70.7518 51.9727 70.4222 51.7228 70.0925C50.5584 68.5347 49.3568 66.9183 48.5539 65.1691C48.522 65.1 48.4901 65.0096 48.4582 64.9139L48.3253 64.5204L48.7347 64.4566C50.5105 64.1801 52.0684 63.5315 53.3551 62.5266C54.2483 61.8301 54.8279 60.8837 54.9023 59.9904C54.9608 59.3365 54.7534 58.7357 54.2802 58.2146C53.4455 57.2895 52.1694 57.0927 51.239 57.0927C50.4255 57.0927 49.5057 57.2416 48.6496 57.5128C46.3846 58.2305 44.9916 59.7778 44.7311 61.8726C44.7098 62.0587 44.7045 62.2501 44.6992 62.4468L44.6886 63.0211L44.2419 62.8775C35.3893 59.9958 27.8659 52.3979 21.6664 45.3477C16.6845 39.6746 12.3034 33.8792 7.91166 27.7063C7.50226 28.4772 7.11413 29.2642 6.74194 30.0617C7.75215 31.3909 8.78894 32.7414 9.85764 34.1131C14.2334 39.7278 18.5614 45.1829 23.4316 50.2127C26.2017 53.0732 28.8655 55.5083 31.5824 57.6616C33.9165 59.5066 35.921 60.8837 37.8989 61.9843C39.1005 62.6542 40.2011 63.1752 41.2538 63.5687C41.3761 63.6112 42.0248 63.7654 42.599 63.9037C44.9012 64.446 44.9066 64.4566 44.981 64.7065C45.4808 66.3707 46.5176 67.8647 47.3683 68.9866L47.8627 69.6353C48.6337 70.6402 49.4312 71.6823 50.1277 72.7563L50.3138 73.0381L50.0374 73.2295C48.4582 74.3248 46.6718 75.5636 45.1458 76.9992C42.8383 79.1684 41.8919 81.2261 42.3279 83.1189C42.6894 84.6714 44.008 85.7614 45.8689 86.0379C46.273 86.0963 46.6983 86.1283 47.1343 86.1283C50.4946 86.1283 54.5301 84.2461 55.3914 80.7582C56.2262 77.366 54.9182 74.7501 53.5305 72.634L53.3657 72.4054C53.488 72.3097 53.6156 72.214 53.7432 72.1236C53.8974 72.0119 54.0516 71.9056 54.2111 71.7992C54.4238 71.6451 54.6364 71.4802 54.8438 71.3207C55.1256 71.1027 55.4074 70.8847 55.6839 70.6614C56.0242 70.3956 56.3591 70.1244 56.6941 69.8533C57.0769 69.5449 57.4597 69.2365 57.8425 68.9228C58.2626 68.5825 58.6773 68.2423 59.0973 67.902C59.5386 67.5404 59.9799 67.1789 60.4212 66.8173C60.8732 66.4451 61.3251 66.0676 61.7824 65.6954C62.2343 65.318 62.6915 64.9458 63.1435 64.5683C63.5848 64.2014 64.0314 63.8292 64.4727 63.4624C64.8927 63.1115 65.3128 62.7605 65.7328 62.4096C65.8444 62.3139 65.9561 62.2235 66.0678 62.1278C77.2066 52.7861 86.2879 41.8226 93.7315 31.1835C93.3753 30.3594 92.9978 29.5459 92.5937 28.7431C85.1022 40.1106 77.0365 49.8192 68.2902 58.0232ZM48.0914 63.3348C47.9638 62.5 47.6182 59.6927 48.5539 58.6027C48.7985 58.3156 49.1228 58.1667 49.4844 58.1667C49.713 58.1667 49.9629 58.2252 50.2234 58.3422C51.457 58.9005 52.0897 60.235 51.7281 61.5111C51.3453 62.8562 50.1809 63.6112 48.437 63.6325L48.1339 63.6378L48.0914 63.3348ZM51.4463 83.7357C50.8987 84.5172 50.165 84.9904 49.2717 85.134C49.0803 85.1659 48.8889 85.1819 48.7081 85.1819C47.6873 85.1819 46.7887 84.6927 46.1773 83.8048C45.3744 82.635 45.1724 80.8964 45.6828 79.5725C46.5548 77.3182 48.5593 75.6912 50.5956 74.2716L50.92 74.043L51.1007 74.3939C51.7281 75.6008 52.1375 76.7546 52.3608 77.919C52.6852 79.6257 52.5363 82.1778 51.4463 83.7357Z" fill="white"/>
<path d="M95.3797 28.8016C95.3105 28.7272 95.2414 28.6474 95.1776 28.5677C95.2255 28.674 95.2733 28.775 95.3265 28.8814C95.3478 28.8495 95.3637 28.8229 95.3797 28.8016Z" fill="white"/>
</svg>
