<svg width="147" height="201" viewBox="0 0 147 201" fill="none" xmlns="http://www.w3.org/2000/svg">
<path d="M48.4083 198.1C48.4083 198.642 48.2787 199.065 48.0232 199.37C47.7639 199.675 47.3864 199.824 46.8907 199.824C46.5514 199.824 46.2464 199.77 45.9718 199.664C45.7011 199.557 45.4304 199.404 45.1635 199.202L44.5 200.155C45.1902 200.689 46.0099 200.956 46.9556 200.956C47.4627 200.956 47.9203 200.865 48.3283 200.682C48.7362 200.499 49.0642 200.197 49.3082 199.778C49.5522 199.359 49.6742 198.813 49.6742 198.142V191.851H48.4045V198.1H48.4083Z" fill="#FFFDF9"/>
<path d="M53.3767 196.762H57.0219L57.1592 195.713H53.3767V192.926H57.6968V191.847H52.1069V200.792H57.7654V199.713H53.3767V196.762Z" fill="#FFFDF9"/>
<path d="M68.3771 197.479C68.2932 197.791 68.2055 198.142 68.114 198.527C68.0225 198.912 67.9501 199.271 67.8929 199.603C67.6908 198.581 67.5344 197.871 67.4239 197.479L65.8377 191.847H64.3468L62.7873 197.479C62.6386 198.005 62.4975 198.707 62.3602 199.591C62.1772 198.745 62.0056 198.039 61.8493 197.479L60.305 191.847H59.02V191.931L61.5747 200.792H63.0923L64.5412 195.301C64.6442 194.916 64.7357 194.52 64.8158 194.116C64.8958 193.711 64.9721 193.338 65.0369 192.998C65.1742 193.799 65.3458 194.566 65.5479 195.301L67.0502 200.792H68.5678L71.0653 191.931V191.847H69.8222L68.3733 197.479H68.3771Z" fill="#FFFDF9"/>
<path d="M74.051 196.762H77.6924L77.8297 195.713H74.051V192.926H78.3673V191.847H72.7812V200.792H78.4397V199.713H74.051V196.762Z" fill="#FFFDF9"/>
<path d="M81.8063 191.847H80.5366V200.792H86.1951V199.686H81.8063V191.847Z" fill="#FFFDF9"/>
<path d="M93.0242 196.59C93.3445 196.327 93.5886 196.018 93.7487 195.66C93.9089 195.301 93.9889 194.909 93.9889 194.486C93.9889 193.959 93.8669 193.502 93.6229 193.105C93.3788 192.709 93.0166 192.4 92.5324 192.182C92.0481 191.961 91.4571 191.851 90.7593 191.851H87.8462V200.792H89.1159V197.299H90.4428L93.0242 200.792H94.4884V200.708L91.8232 197.162C92.2998 197.044 92.7001 196.853 93.0242 196.59ZM89.1197 196.251V192.926H90.7326C91.3694 192.926 91.8498 193.063 92.1739 193.342C92.5019 193.616 92.6658 194.016 92.6658 194.543C92.6658 195.069 92.4866 195.507 92.1358 195.805C91.785 196.102 91.2588 196.255 90.5687 196.255H89.1197V196.251Z" fill="#FFFDF9"/>
<path d="M98.6143 196.14L96.1167 191.847H94.7212V191.931L97.9356 197.258V200.792H99.2053V197.3L102.519 191.931V191.847H101.207L98.6143 196.14Z" fill="#FFFDF9"/>
<path d="M78.9007 165.926C78.0771 164.256 76.918 162.96 74.8971 162.815C73.3185 162.7 72.0106 163.349 70.8706 164.363C65.6239 169.041 65.54 176.911 64.8079 183.397C64.7659 183.786 64.7202 184.187 64.8155 184.564C64.9108 184.945 65.1739 185.308 65.5552 185.407C67.0194 185.788 67.4465 180.45 67.5494 179.649C67.9994 176.145 68.7467 172.633 70.4244 169.491C71.1298 168.172 71.984 166.982 73.2346 166.121C74.4433 165.289 75.3623 165.492 76.1363 166.735C76.5786 167.451 76.7731 168.248 76.937 169.06C77.5547 172.107 77.4213 175.184 77.4098 178.265C77.3412 179.84 77.2535 181.415 77.2154 182.986C77.1963 183.702 77.6386 184.271 78.1381 184.24C78.8016 184.202 79.0761 183.729 79.1791 183.146C79.3316 182.261 79.4841 181.373 79.5947 180.484C80.0294 177.022 80.0217 173.545 79.854 170.067C79.7853 168.637 79.5413 167.223 78.9045 165.926H78.9007Z" fill="#FFFDF9"/>
<path d="M60.4727 183.401C63.218 178.082 63.3629 171.852 63.4468 166.006C63.4582 165.232 63.382 164.298 62.6994 163.932C61.4717 163.276 61.0332 164.885 61.0141 165.728C60.915 169.709 60.7891 173.689 59.8244 177.586C59.5347 178.757 59.2144 179.935 58.57 180.953C57.2583 183.027 55.4853 183.374 53.9143 181.247C53.2318 180.32 52.8467 179.287 52.698 178.139C52.3472 175.417 52.4577 172.698 52.6179 169.972C52.6789 168.572 52.7399 167.169 52.8009 165.77C52.8238 165.175 52.8352 164.5 52.0421 164.47C51.2223 164.435 51.2566 165.148 51.2033 165.72C51.1613 166.17 51.1423 166.62 51.0927 167.066C50.6199 171.306 50.3682 175.546 50.9783 179.802C51.2071 181.384 51.6265 182.871 52.6484 184.16C54.8332 186.917 58.7835 186.669 60.4688 183.405L60.4727 183.401Z" fill="#FFFDF9"/>
<path d="M46.7038 175.706C45.6399 173.891 43.9965 172.721 42.2502 171.649C41.2893 171.062 40.317 170.475 39.604 169.567C39.0473 168.858 38.9786 168.141 39.4743 167.352C40.0386 166.448 40.8813 165.903 41.8422 165.594C43.8173 164.958 45.7924 164.256 47.9277 164.412C48.2938 164.439 48.5836 164.283 48.6484 163.901C48.7132 163.52 48.4768 163.291 48.1374 163.173C47.7028 163.021 47.2338 163.009 46.7953 163.074C44.0423 163.482 41.2893 163.852 38.8833 165.469C37.0493 166.7 36.4697 168.374 37.339 170.395C37.5793 170.955 37.9262 171.44 38.3304 171.893C39.3066 172.992 40.5153 173.808 41.6668 174.692C42.5857 175.398 43.4856 176.114 44.0728 177.144C44.9269 178.639 44.7858 179.966 43.5847 181.174C42.0214 182.745 40.0653 183.184 37.8195 183.027C37.4267 182.989 36.9272 182.928 36.4277 182.894C35.8787 182.856 35.4936 183.119 35.3487 183.637C35.1961 184.183 35.4897 184.568 35.9626 184.785C36.2295 184.907 36.5383 184.976 36.8319 184.995C37.7356 185.052 38.6355 185.094 39.5391 185.105C41.0834 185.125 42.5667 184.854 44.0194 184.301C47.3901 183.02 48.656 179.024 46.7114 175.706H46.7038Z" fill="#FFFDF9"/>
<path d="M110.229 180.389C109.382 180.515 108.662 181.11 107.762 180.949C105.806 180.606 105.043 178.463 104.711 176.755C104.627 176.317 104.04 170.914 104.421 170.856C111.689 169.777 110.945 167.775 108.627 168.096C107.079 168.309 105.47 168.241 104.551 168.168C104.639 166.796 104.742 165.427 104.795 164.084C104.814 163.638 104.841 163.105 104.395 162.861C103.914 162.594 103.114 162.88 102.809 163.28C102.584 163.574 102.473 163.943 102.397 164.306C102.035 166.006 102.202 167.798 102.187 169.522C102.168 171.394 102.157 173.27 102.073 175.138C101.993 176.995 102.035 178.719 101.196 180.396C99.6209 182.528 97.8517 182.177 96.54 180.103C95.7049 178.784 95.255 177.255 94.969 175.733C94.7555 174.601 94.847 173.4 94.4467 172.301C94.0882 171.314 92.7613 170.883 92.7117 172.26C92.605 175.245 93.318 178.654 91.4115 181.235C89.8367 183.367 88.0675 183.016 86.7558 180.942C86.1153 179.927 85.7912 178.745 85.5014 177.575C84.5367 173.678 84.4109 169.701 84.3155 165.716C84.2965 164.874 83.858 163.265 82.6302 163.921C81.9477 164.287 81.8714 165.217 81.8828 165.995C81.9705 171.84 82.1154 178.071 84.857 183.39C86.5385 186.654 90.4926 186.901 92.6774 184.145C93.3676 183.271 93.7832 182.307 94.0501 181.285C94.2255 181.701 94.42 182.124 94.6411 182.551C96.3226 185.815 100.277 186.063 102.462 183.306C103.053 182.558 103.438 181.746 103.708 180.888C103.949 181.441 104.254 181.971 104.646 182.467C106.423 184.705 109.744 183.584 111.468 181.895C111.598 181.769 111.723 181.628 111.781 181.453C112.002 180.74 110.74 180.297 110.225 180.377L110.229 180.389Z" fill="#FFFDF9"/>
<path d="M93.2151 168.126C94.2027 168.126 95.0033 167.326 95.0033 166.338C95.0033 165.35 94.2027 164.55 93.2151 164.55C92.2274 164.55 91.4268 165.35 91.4268 166.338C91.4268 167.326 92.2274 168.126 93.2151 168.126Z" fill="#FFFDF9"/>
<path d="M73.5017 147.17C113.996 147.17 146.826 114.344 146.826 73.8461C146.826 62.777 144.37 52.2836 139.977 42.8732C140.004 42.835 140.031 42.7969 140.058 42.7588C139.955 42.6482 139.859 42.5338 139.764 42.4118C127.993 17.6464 102.751 0.522217 73.5055 0.522217C33.0115 0.522217 0.181641 33.3483 0.181641 73.8461C0.181641 114.344 33.0077 147.17 73.5055 147.17H73.5017ZM73.5017 4.02635C100.856 4.02635 124.531 19.7588 135.985 42.6673C124.981 59.3491 113.157 73.5868 100.322 85.6207C93.7297 91.8053 85.9016 98.928 77.8257 104.888L77.4139 105.193L77.1126 104.781C76.7542 104.293 76.392 103.809 76.0297 103.321C74.3253 101.033 72.5599 98.6687 71.3817 96.0988C71.3359 95.9996 71.2864 95.8624 71.2406 95.7289L71.0424 95.1531L71.6448 95.0616C74.2491 94.6575 76.5293 93.708 78.4167 92.2362C79.7245 91.2181 80.571 89.8264 80.6892 88.5185C80.7731 87.5577 80.4681 86.6807 79.7817 85.9142C78.5616 84.553 76.6818 84.2708 75.3205 84.2708C74.1271 84.2708 72.7811 84.4882 71.5266 84.8847C68.2017 85.9333 66.1655 88.2059 65.7804 91.283C65.7461 91.5575 65.7423 91.832 65.7347 92.1218L65.7156 92.9607L65.0636 92.7471C52.0841 88.5185 41.0455 77.3808 31.9591 67.0399C24.6496 58.7238 18.2324 50.217 11.7884 41.1726C23.5134 19.0839 46.7459 4.04161 73.4941 4.04161L73.5017 4.02635ZM75.6256 123.32C74.821 124.467 73.7458 125.158 72.4379 125.367C72.1595 125.413 71.8774 125.436 71.6105 125.436C70.112 125.436 68.7965 124.719 67.9004 123.415C66.726 121.703 66.4248 119.148 67.176 117.208C68.4495 113.902 71.3931 111.519 74.3825 109.437L74.8591 109.105L75.1261 109.62C76.045 111.389 76.6513 113.078 76.9715 114.786C77.4444 117.299 77.227 121.043 75.6256 123.324V123.32ZM70.7754 93.8453L70.7068 93.4068C70.52 92.1828 70.0128 88.0686 71.3893 86.4633C71.7516 86.0439 72.2244 85.8189 72.7582 85.8189C73.0937 85.8189 73.456 85.9066 73.8373 86.0782C75.6446 86.898 76.5712 88.8503 76.0412 90.7263C75.4807 92.7014 73.7686 93.8071 71.2177 93.8376H70.7754V93.8453ZM10.0802 44.6195C11.5596 46.5679 13.081 48.5469 14.652 50.564C21.0654 58.7962 27.4179 66.7997 34.5596 74.174C38.6204 78.3683 42.5288 81.9411 46.5172 85.0983C49.9374 87.8093 52.8811 89.8226 55.7751 91.4393C57.5405 92.423 59.1496 93.1856 60.6977 93.7614C60.8731 93.8262 61.8301 94.0512 62.669 94.2495C66.0435 95.0464 66.0511 95.0578 66.1617 95.4277C66.89 97.868 68.4152 100.064 69.662 101.704L70.3903 102.657C71.519 104.133 72.6858 105.658 73.7114 107.229L73.9822 107.645L73.5742 107.927C71.2597 109.532 68.6402 111.351 66.4019 113.452C63.0198 116.636 61.6281 119.652 62.2686 122.424C62.7948 124.7 64.7356 126.298 67.4619 126.702C68.0568 126.79 68.6783 126.835 69.315 126.835C74.2414 126.835 80.1592 124.075 81.4213 118.961C82.6453 113.989 80.7312 110.15 78.695 107.046L78.4548 106.714C78.634 106.573 78.8209 106.436 79.0077 106.299C79.2327 106.138 79.4614 105.978 79.6902 105.826C80.0029 105.597 80.3117 105.361 80.6206 105.124C81.0324 104.804 81.4442 104.484 81.8522 104.159C82.3479 103.767 82.8436 103.37 83.3354 102.974C83.8998 102.52 84.4603 102.066 85.0208 101.609C85.6347 101.109 86.2486 100.61 86.8586 100.11C87.5069 99.58 88.1513 99.05 88.7995 98.5162C89.4629 97.9671 90.1302 97.4181 90.7937 96.869C91.4609 96.3199 92.1244 95.767 92.7879 95.2141C93.4361 94.6727 94.0881 94.1351 94.7363 93.5936C95.354 93.0789 95.9717 92.5641 96.5894 92.0455C96.7534 91.9083 96.9173 91.771 97.0813 91.6299C113.42 77.9337 126.731 61.8542 137.648 46.2515C141.297 54.7201 143.321 64.0505 143.321 73.8538C143.321 112.415 112.063 143.677 73.4979 143.677C34.9333 143.677 3.67816 112.418 3.67816 73.8538C3.67816 63.4138 5.97358 53.5114 10.0802 44.6195Z" fill="#FFFDF9"/>
</svg>
