<svg width="100" height="31" viewBox="0 0 100 31" fill="none" xmlns="http://www.w3.org/2000/svg">
<g clip-path="url(#clip0_1053_2)">
<path d="M7.55067 0H1.27327C0.570557 0 0 0.570557 0 1.27327V14.574C0 14.912 0.134697 15.236 0.373594 15.4749L6.65099 21.7523C7.14785 22.2492 7.14785 23.0561 6.65099 23.553L2.17549 28.0285C1.37366 28.8303 1.94167 30.2027 3.07643 30.2027H21.3775C22.0802 30.2027 22.6507 29.6321 22.6507 28.9294V15.6287C22.6507 15.2907 22.516 14.9666 22.2771 14.7277L15.9997 8.45035C15.5029 7.95349 15.5029 7.14658 15.9997 6.64972L20.4753 2.17422C21.2771 1.37239 20.7091 0 19.5743 0H7.55067Z" fill="white"/>
<path d="M32.8077 0H27.0576C26.3549 0 25.7844 0.570557 25.7844 1.27327V28.9281C25.7844 29.6309 26.3549 30.2014 27.0576 30.2014H47.1618C47.8645 30.2014 48.4351 29.6309 48.4351 28.9281V3.07389C48.4351 1.93913 47.064 1.37112 46.2609 2.17295L41.7854 6.64845C41.2885 7.14531 40.4816 7.14531 39.9847 6.64845L33.7073 0.373594C33.4685 0.134697 33.1444 0 32.8064 0H32.8077Z" fill="white"/>
<path d="M84.8987 0H78.6302C77.9274 0 77.3569 0.570557 77.3569 1.27327V28.9281C77.3569 29.6309 77.9274 30.2014 78.6302 30.2014H84.9076V30.1938L91.5497 23.5517C92.0465 23.0548 92.8534 23.0548 93.3503 23.5517L97.8258 28.0272C98.6276 28.829 100 28.261 100 27.1262V1.27327C100 0.570557 99.4294 0 98.7267 0H84.8999H84.8987Z" fill="white"/>
<path d="M59.0978 0H52.8623C52.1596 0 51.5891 0.570557 51.5891 1.27327V28.9281C51.5891 29.6309 52.1596 30.2014 52.8623 30.2014H71.124C72.2587 30.2014 72.8267 28.8303 72.0249 28.0272L67.5494 23.5517C67.0525 23.0548 67.0525 22.2479 67.5494 21.7511L73.8268 15.4737C74.0657 15.2348 74.2004 14.9107 74.2004 14.5727V1.27327C74.2004 0.570557 73.6298 0 72.9271 0H59.1003H59.0978Z" fill="white"/>
</g>
<defs>
<clipPath id="clip0_1053_2">
<rect width="100" height="30.2014" fill="white"/>
</clipPath>
</defs>
</svg>
