<svg width="151" height="36" viewBox="0 0 151 36" fill="none" xmlns="http://www.w3.org/2000/svg">
<path d="M25.32 13.87H20.67H16.02L12.01 6.93L8.00999 0H11.11H14.21L16.66 4.25L19.12 8.5H20.67H22.22L24.68 4.25L27.13 0H30.23H33.33L29.33 6.93L25.32 13.87Z" fill="white"/>
<path d="M28.68 35.8L20.67 21.93L25.32 13.87H41.34L38.24 19.24H28.42L26.87 21.93L31.78 30.43L28.68 35.8Z" fill="white"/>
<path d="M12.66 35.8L9.56 30.43L14.47 21.93L12.92 19.24H3.1L0 13.87H16.02L20.67 21.93L12.66 35.8Z" fill="white"/>
<path d="M52.65 32.17H48.7V1.44H64.94C66.52 1.44 67.95 1.69 69.24 2.19C70.53 2.69 71.63 3.38 72.53 4.28C73.44 5.17 74.14 6.25 74.64 7.51C75.14 8.77 75.39 10.17 75.39 11.73C75.39 13.37 75.1 14.79 74.51 15.99C73.92 17.19 73.13 18.18 72.14 18.95C71.14 19.73 69.99 20.3 68.67 20.68C67.35 21.06 65.96 21.25 64.5 21.25H52.65V32.18V32.17ZM52.65 17.59H64.64C66.75 17.59 68.38 17.11 69.54 16.16C70.7 15.21 71.27 13.74 71.27 11.75C71.27 9.55 70.66 7.89 69.43 6.77C68.2 5.64 66.5 5.08 64.34 5.08H52.66V17.59H52.65Z" fill="white"/>
<path d="M117.94 14H112.67C111.27 14 110.17 14.23 109.4 14.7C108.62 15.17 108.05 15.78 107.67 16.52C107.29 17.27 107.06 18.11 106.97 19.04C106.88 19.98 106.84 20.9 106.84 21.81V32.17H102.84V10.27H106.79V18.83C106.79 17.54 106.98 16.37 107.36 15.32C107.74 14.27 108.26 13.36 108.92 12.6C109.58 11.84 110.36 11.25 111.27 10.84C112.18 10.43 113.14 10.23 114.17 10.23H117.95V14.01L117.94 14Z" fill="white"/>
<path d="M120.13 1.44H123.91V32.17H120.13V1.44Z" fill="white"/>
<path d="M149.83 15.25C149.26 14.04 148.44 13.06 147.37 12.31C146.3 11.56 145.01 11.02 143.49 10.68C141.97 10.34 140.26 10.17 138.35 10.17H130.6V13.42H138.44C139.35 13.42 140.29 13.48 141.27 13.59C142.25 13.71 143.15 13.94 143.97 14.29C144.79 14.64 145.46 15.14 145.99 15.78C146.52 16.43 146.78 17.26 146.78 18.28V19.2L135.1 19.68C134.11 19.71 133.07 19.83 132.01 20.05C130.95 20.27 129.97 20.62 129.09 21.11C128.21 21.59 127.49 22.21 126.94 22.97C126.38 23.73 126.11 24.68 126.11 25.82C126.11 26.96 126.37 27.96 126.88 28.83C127.39 29.69 128.07 30.41 128.9 30.98C129.73 31.55 130.67 31.98 131.71 32.28C132.75 32.57 133.81 32.72 134.89 32.72C135.51 32.72 136.23 32.68 137.06 32.59C137.89 32.5 138.75 32.35 139.63 32.13C140.51 31.91 141.39 31.6 142.26 31.21C143.14 30.82 143.91 30.31 144.59 29.69C145.26 29.08 145.81 28.32 146.24 27.43C146.66 26.54 146.87 25.49 146.87 24.29V32.1H150.69V19.68C150.69 17.92 150.4 16.44 149.83 15.22V15.25ZM146.87 24.14C146.87 25.22 146.48 26.12 145.69 26.82C144.9 27.52 143.93 28.08 142.79 28.51C141.65 28.93 140.45 29.23 139.19 29.39C137.93 29.55 136.82 29.63 135.85 29.63C135.15 29.63 134.45 29.56 133.74 29.41C133.04 29.26 132.42 29.04 131.87 28.73C131.33 28.42 130.89 28.03 130.55 27.54C130.21 27.06 130.04 26.47 130.04 25.76C130.04 25.23 130.23 24.78 130.61 24.4C130.99 24.02 131.48 23.71 132.08 23.46C132.68 23.21 133.35 23.02 134.1 22.87C134.85 22.72 135.58 22.64 136.32 22.61L146.86 22.21V24.14H146.87Z" fill="white"/>
<path d="M99.78 15.25C99.21 14.04 98.39 13.06 97.32 12.31C96.25 11.56 94.96 11.02 93.44 10.68C91.92 10.34 90.21 10.17 88.3 10.17H80.55V13.42H88.39C89.3 13.42 90.24 13.48 91.22 13.59C92.2 13.71 93.1 13.94 93.92 14.29C94.74 14.64 95.41 15.14 95.94 15.78C96.47 16.43 96.73 17.26 96.73 18.28V19.2L85.05 19.68C84.06 19.71 83.02 19.83 81.96 20.05C80.9 20.27 79.92 20.62 79.04 21.11C78.16 21.59 77.44 22.21 76.89 22.97C76.33 23.73 76.06 24.68 76.06 25.82C76.06 26.96 76.32 27.96 76.83 28.83C77.34 29.69 78.02 30.41 78.85 30.98C79.68 31.55 80.62 31.98 81.66 32.28C82.7 32.57 83.76 32.72 84.84 32.72C85.46 32.72 86.18 32.68 87.01 32.59C87.84 32.5 88.7 32.35 89.58 32.13C90.46 31.91 91.34 31.6 92.21 31.21C93.09 30.82 93.86 30.31 94.54 29.69C95.21 29.08 95.76 28.32 96.19 27.43C96.61 26.54 96.82 25.49 96.82 24.29V32.1H100.64V19.68C100.64 17.92 100.35 16.44 99.78 15.22V15.25ZM96.82 24.14C96.82 25.22 96.43 26.12 95.64 26.82C94.85 27.52 93.88 28.08 92.74 28.51C91.6 28.93 90.4 29.23 89.14 29.39C87.88 29.55 86.77 29.63 85.8 29.63C85.1 29.63 84.4 29.56 83.69 29.41C82.99 29.26 82.37 29.04 81.82 28.73C81.28 28.42 80.84 28.03 80.5 27.54C80.16 27.06 79.99 26.47 79.99 25.76C79.99 25.23 80.18 24.78 80.56 24.4C80.94 24.02 81.43 23.71 82.03 23.46C82.63 23.21 83.3 23.02 84.05 22.87C84.8 22.72 85.53 22.64 86.27 22.61L96.81 22.21V24.14H96.82Z" fill="white"/>
</svg>
