<svg width="204" height="138" viewBox="0 0 204 138" fill="none" xmlns="http://www.w3.org/2000/svg">
<g clip-path="url(#clip0_1856_65)">
<path d="M74.28 1.44006C74.21 1.44006 74.14 1.41006 74.08 1.36006C74.03 1.31006 73.97 1.25006 73.88 1.17006C73.88 1.17006 73.86 1.15006 73.85 1.14006C73.82 1.10006 73.78 1.06006 73.74 1.03006C73.66 0.950059 73.63 0.840059 73.67 0.730059C73.71 0.620059 73.81 0.560059 73.92 0.560059H74.91C75.04 0.560059 75.14 0.650059 75.17 0.770059C75.2 0.890059 75.14 1.02006 75.03 1.08006C74.91 1.14006 74.77 1.22006 74.66 1.31006C74.64 1.32006 74.62 1.33006 74.61 1.34006C74.52 1.38006 74.43 1.41006 74.34 1.44006C74.32 1.44006 74.29 1.45006 74.27 1.45006L74.28 1.44006Z" fill="url(#paint0_linear_1856_65)"/>
<path d="M77.75 53.69C75.24 53.69 73.19 51.64 73.19 49.13V10.26C73.19 9.91 72.91 9.63 72.56 9.63H70.01C68.41 9.63 67.04 11.66 67.04 13.32L68.48 29.21C68.49 29.56 68.77 29.83 69.11 29.83H70.74C70.89 29.83 71.01 29.95 71.01 30.1V31.21C71.01 31.36 70.89 31.48 70.74 31.48H67.08C66.94 31.48 66.82 31.37 66.81 31.23L65.39 13.32C65.4 10.84 67.43 7.97 70.02 7.97H72.57C72.92 7.97 73.2 7.69 73.2 7.34V0.27C73.2 0.12 73.32 0 73.47 0H119.9C123.73 0 126.85 3.12 126.85 6.95C126.85 6.96 126.85 6.99 126.85 7L122.34 37.41V37.45C121.9 41.21 118.71 44.05 114.92 44.05H90.34C86.23 44.05 82.87 40.7 82.86 36.59C82.86 36.58 82.86 36.56 82.86 36.55L78.89 10.22C78.86 9.87 78.59 9.62 78.26 9.62H75.49C75.14 9.62 74.86 9.9 74.86 10.25V49.13C74.86 50.73 76.16 52.04 77.77 52.04H128.01C128.35 52.04 128.63 51.77 128.64 51.43L129.77 7.92C129.77 7.77 129.89 7.65 130.04 7.65L135.94 7.72C137.96 7.74 139.6 9.4 139.6 11.41V31.26C139.6 31.41 139.48 31.53 139.33 31.53H133.65C133.5 31.53 133.38 31.41 133.38 31.26V30.15C133.38 30 133.5 29.88 133.65 29.88H137.31C137.66 29.88 137.94 29.6 137.94 29.25V11.41C137.94 10.3 137.03 9.38 135.92 9.37L132 9.33C131.65 9.33 131.37 9.59 131.36 9.94L130.23 53.43C130.23 53.58 130.11 53.7 129.96 53.7H77.76L77.75 53.69ZM75.47 1.65C75.12 1.65 74.84 1.93 74.84 2.28V7.35C74.84 7.7 75.12 7.98 75.47 7.98H80.18C80.32 7.98 80.43 8.08 80.45 8.21L84.49 36.58C84.49 36.58 84.49 36.6 84.49 36.62C84.51 39.81 87.13 42.41 90.32 42.41H114.9C117.83 42.41 120.32 40.22 120.68 37.3V37.27L125.19 6.96C125.19 6.95 125.19 6.93 125.19 6.92C125.17 4.01 122.8 1.65 119.89 1.65H75.47Z" fill="url(#paint1_linear_1856_65)"/>
<path d="M116.94 60.4999C116.79 60.4999 116.67 60.3799 116.67 60.2299V52.8599L116.71 49.7399C116.71 49.5699 116.65 49.4099 116.53 49.2899C116.41 49.1699 116.25 49.0999 116.08 49.0999H91.66C89.03 49.0999 86.89 51.2399 86.89 53.8699V55.7999C86.89 58.3899 84.78 60.4999 82.19 60.4999H77.84C77.69 60.4999 77.57 60.3799 77.57 60.2299V54.0099C77.57 53.8599 77.69 53.7399 77.84 53.7399H78.95C79.1 53.7399 79.22 53.8599 79.22 54.0099V58.2199C79.22 58.5699 79.5 58.8499 79.85 58.8499H82.19C83.87 58.8499 85.24 57.4799 85.24 55.7999V53.8699C85.24 50.3299 88.12 47.4399 91.67 47.4399H118.12C118.19 47.4399 118.26 47.4699 118.31 47.5199C118.36 47.5699 118.39 47.6399 118.39 47.7099L118.32 52.8599V58.1999C118.32 58.5499 118.6 58.8299 118.95 58.8299H122.02C123.3 58.8299 124.34 57.7899 124.34 56.5099V52.9499C124.34 52.7999 124.46 52.6799 124.61 52.6799H125.72C125.87 52.6799 125.99 52.7999 125.99 52.9499V56.5099C125.99 58.6999 124.21 60.4799 122.02 60.4799H116.94V60.4999Z" fill="url(#paint2_linear_1856_65)"/>
<path d="M0 118.31V89.8201H12.22C15.38 89.8201 17.85 90.4501 19.57 91.7001C21.25 92.9301 22.07 94.6201 22.07 96.8801C22.07 98.3701 21.72 99.6301 21.04 100.63C20.35 101.64 19.41 102.41 18.23 102.93C18.12 102.98 18.01 103.02 17.9 103.07C17.68 103.16 17.54 103.38 17.56 103.62C17.58 103.86 17.75 104.06 17.98 104.11C18.57 104.24 19.12 104.42 19.63 104.63C20.89 105.16 21.88 105.96 22.58 107.01C23.28 108.05 23.63 109.38 23.63 110.95C23.63 113.3 22.8 115.06 21.08 116.34C19.34 117.64 16.64 118.3 13.06 118.3H0V118.31ZM2.58 104.62C2.28 104.62 2.04 104.86 2.04 105.16V116.27C2.04 116.57 2.28 116.81 2.58 116.81H13.02C15.71 116.81 17.81 116.33 19.27 115.39C20.81 114.4 21.59 112.82 21.59 110.69C21.59 108.56 20.81 107.02 19.27 106.03C17.81 105.09 15.7 104.61 13.02 104.61H2.58V104.62ZM2.58 91.3101C2.28 91.3101 2.04 91.5501 2.04 91.8501V102.58C2.04 102.88 2.28 103.12 2.58 103.12H12C14.47 103.12 16.43 102.63 17.82 101.67C19.28 100.67 20.02 99.1601 20.02 97.2101C20.02 95.2601 19.28 93.7101 17.82 92.7201C16.43 91.7701 14.47 91.3001 12 91.3001H2.58V91.3101Z" fill="white"/>
<path d="M41.6 118.56C37.99 118.56 35.12 117.52 33.07 115.47C31.02 113.42 29.98 110.31 29.98 106.22V89.8201H32.02V106.09C32.02 109.71 32.87 112.44 34.54 114.2C36.22 115.97 38.59 116.86 41.61 116.86C44.63 116.86 47.05 115.96 48.72 114.2C50.39 112.44 51.24 109.71 51.24 106.09V89.8201H53.19V106.22C53.19 110.3 52.16 113.42 50.12 115.47C48.08 117.52 45.22 118.56 41.61 118.56H41.6Z" fill="white"/>
<path d="M69.14 118.56C67.02 118.56 64.95 118.21 63.01 117.51C61.25 116.88 59.84 116.09 58.83 115.14L59.55 113.72C60.57 114.57 61.86 115.3 63.39 115.9C65.2 116.61 67.14 116.97 69.14 116.97C71.14 116.97 72.65 116.72 73.88 116.23C75.14 115.73 76.09 115.03 76.7 114.16C77.31 113.28 77.62 112.3 77.62 111.23C77.62 109.94 77.24 108.87 76.48 108.07C75.76 107.31 74.82 106.7 73.68 106.27C72.59 105.86 71.37 105.49 70.06 105.17C68.77 104.86 67.46 104.53 66.19 104.18C64.94 103.84 63.78 103.38 62.74 102.81C61.74 102.26 60.92 101.53 60.31 100.64C59.71 99.77 59.41 98.58 59.41 97.12C59.41 95.77 59.77 94.51 60.49 93.38C61.2 92.25 62.33 91.32 63.83 90.62C65.36 89.91 67.35 89.55 69.77 89.55C71.37 89.55 72.99 89.78 74.56 90.23C75.96 90.63 77.2 91.17 78.26 91.83L77.63 93.31C76.48 92.61 75.26 92.08 73.99 91.73C72.53 91.32 71.09 91.12 69.72 91.12C67.88 91.12 66.33 91.38 65.12 91.88C63.87 92.4 62.93 93.11 62.32 94C61.71 94.89 61.4 95.91 61.4 97.03C61.4 98.32 61.78 99.39 62.54 100.19C63.26 100.95 64.21 101.55 65.37 101.98C66.46 102.38 67.69 102.74 69 103.05C70.28 103.36 71.58 103.7 72.84 104.06C74.08 104.41 75.24 104.88 76.28 105.43C77.28 105.96 78.1 106.68 78.71 107.56C79.3 108.42 79.61 109.58 79.61 111.01C79.61 112.33 79.24 113.58 78.51 114.71C77.78 115.84 76.64 116.77 75.13 117.47C73.59 118.18 71.57 118.54 69.13 118.54L69.14 118.56Z" fill="white"/>
<path d="M111.48 118.56C109.33 118.56 107.33 118.2 105.51 117.48C103.7 116.76 102.11 115.74 100.79 114.45C99.47 113.15 98.42 111.61 97.68 109.85C96.94 108.1 96.56 106.15 96.56 104.06C96.56 101.97 96.94 100.03 97.68 98.2701C98.42 96.5201 99.48 94.9701 100.81 93.6701C102.15 92.3701 103.74 91.3501 105.55 90.6401C107.36 89.9201 109.37 89.5601 111.52 89.5601C113.67 89.5601 115.55 89.9101 117.37 90.6001C119 91.2201 120.41 92.1301 121.58 93.3101L120.35 94.5401C119.19 93.4401 117.91 92.6301 116.53 92.1101C115.01 91.5401 113.35 91.2501 111.61 91.2501C109.77 91.2501 108.04 91.5701 106.47 92.2001C104.89 92.8301 103.49 93.7401 102.32 94.9001C101.15 96.0601 100.22 97.4201 99.56 98.9601C98.9 100.5 98.57 102.21 98.57 104.05C98.57 105.89 98.9 107.6 99.56 109.14C100.22 110.68 101.15 112.04 102.32 113.2C103.49 114.36 104.89 115.27 106.47 115.9C108.05 116.53 109.78 116.85 111.61 116.85C113.44 116.85 115.02 116.55 116.54 115.97C117.91 115.44 119.2 114.62 120.35 113.52L121.58 114.75C120.41 115.93 119 116.85 117.37 117.48C115.56 118.18 113.58 118.54 111.48 118.54V118.56Z" fill="white"/>
<path d="M151.34 118.31L147.95 110.73C147.86 110.53 147.67 110.41 147.45 110.41H130.95C130.74 110.41 130.54 110.54 130.45 110.73L127.06 118.31H125.01L138.03 89.8201H140.41L153.43 118.31H151.33H151.34ZM139.2 91.9701C138.99 91.9701 138.79 92.1001 138.7 92.2901L131.58 108.2C131.5 108.37 131.52 108.56 131.62 108.72C131.72 108.87 131.89 108.97 132.08 108.97H146.32C146.5 108.97 146.68 108.88 146.78 108.72C146.88 108.57 146.9 108.37 146.82 108.2L139.7 92.2901C139.61 92.0901 139.42 91.9701 139.2 91.9701Z" fill="white"/>
<path d="M158.54 118.31V89.8201H177.73V91.4401H161.12C160.82 91.4401 160.58 91.6801 160.58 91.9801V103.6C160.58 103.9 160.82 104.14 161.12 104.14H175.87V105.76H161.12C160.82 105.76 160.58 106 160.58 106.3V118.3H158.54V118.31Z" fill="white"/>
<path d="M183.29 118.31V89.8201H202.48V91.4401H185.87C185.57 91.4401 185.33 91.6801 185.33 91.9801V102.5C185.33 102.8 185.57 103.04 185.87 103.04H200.62V104.61H185.87C185.57 104.61 185.33 104.85 185.33 105.15V116.13C185.33 116.43 185.57 116.67 185.87 116.67H203.11V118.29H183.28L183.29 118.31Z" fill="white"/>
<path d="M25.63 137.25C25.01 137.25 24.44 137.14 23.91 136.93C23.38 136.72 22.92 136.41 22.53 136.03C22.14 135.64 21.83 135.19 21.61 134.67C21.39 134.15 21.28 133.58 21.28 132.98C21.28 132.38 21.39 131.8 21.61 131.29C21.83 130.77 22.14 130.32 22.53 129.93C22.92 129.54 23.39 129.24 23.91 129.03C24.44 128.82 25.01 128.71 25.63 128.71C26.18 128.71 26.71 128.8 27.21 128.98C27.72 129.16 28.16 129.44 28.53 129.8C28.63 129.9 28.64 130.06 28.54 130.17L28.4 130.33C28.35 130.39 28.28 130.42 28.21 130.42C28.21 130.42 28.21 130.42 28.2 130.42C28.13 130.42 28.06 130.39 28.01 130.34C27.68 130.02 27.31 129.79 26.92 129.66C26.52 129.53 26.09 129.46 25.63 129.46C25.12 129.46 24.65 129.55 24.21 129.73C23.78 129.91 23.39 130.16 23.07 130.48C22.75 130.8 22.5 131.17 22.32 131.6C22.14 132.02 22.05 132.49 22.05 132.99C22.05 133.49 22.14 133.95 22.32 134.38C22.5 134.8 22.75 135.18 23.07 135.5C23.39 135.82 23.77 136.07 24.21 136.25C24.64 136.43 25.12 136.52 25.63 136.52C26.08 136.52 26.51 136.45 26.92 136.31C27.31 136.18 27.68 135.95 28.01 135.63C28.06 135.58 28.13 135.55 28.2 135.55C28.2 135.55 28.2 135.55 28.21 135.55C28.28 135.55 28.35 135.59 28.4 135.64L28.54 135.8C28.63 135.91 28.63 136.07 28.53 136.17C28.16 136.54 27.72 136.82 27.22 137C26.72 137.18 26.19 137.27 25.64 137.27L25.63 137.25Z" fill="url(#paint3_linear_1856_65)"/>
<path d="M37.85 137.22C37.74 137.22 37.65 137.16 37.6 137.06L36.56 134.82H32.05L31.01 137.06C30.97 137.16 30.87 137.22 30.76 137.22H30.5C30.41 137.22 30.32 137.17 30.27 137.09C30.22 137.01 30.21 136.91 30.25 136.83L33.94 128.89C33.98 128.79 34.08 128.73 34.19 128.73H34.42C34.53 128.73 34.62 128.79 34.67 128.89L38.36 136.83C38.4 136.91 38.39 137.01 38.34 137.09C38.29 137.17 38.2 137.22 38.11 137.22H37.85ZM36.21 134.07L34.3 129.96L32.39 134.07H36.2H36.21Z" fill="url(#paint4_linear_1856_65)"/>
<path d="M40.9 137.22C40.75 137.22 40.63 137.1 40.63 136.95V129.01C40.63 128.86 40.75 128.74 40.9 128.74H46.02C46.17 128.74 46.29 128.86 46.29 129.01V129.23C46.29 129.38 46.17 129.5 46.02 129.5H41.4V132.77H45.51C45.66 132.77 45.78 132.89 45.78 133.04V133.26C45.78 133.41 45.66 133.53 45.51 133.53H41.4V136.96C41.4 137.11 41.28 137.23 41.13 137.23H40.9V137.22Z" fill="url(#paint5_linear_1856_65)"/>
<path d="M49 137.22C48.85 137.22 48.73 137.1 48.73 136.95V129.01C48.73 128.86 48.85 128.74 49 128.74H54.12C54.27 128.74 54.39 128.86 54.39 129.01V129.23C54.39 129.38 54.27 129.5 54.12 129.5H49.5V132.54H53.61C53.76 132.54 53.88 132.66 53.88 132.81V133.03C53.88 133.18 53.76 133.3 53.61 133.3H49.5V136.47H54.29C54.44 136.47 54.56 136.59 54.56 136.74V136.96C54.56 137.11 54.44 137.23 54.29 137.23H49V137.22Z" fill="url(#paint6_linear_1856_65)"/>
<path d="M68.24 137.22C68.13 137.22 68.04 137.16 67.99 137.06L66.95 134.82H62.44L61.4 137.06C61.36 137.16 61.26 137.22 61.15 137.22H60.89C60.8 137.22 60.71 137.17 60.66 137.09C60.61 137.01 60.6 136.91 60.64 136.83L64.33 128.89C64.37 128.79 64.47 128.73 64.58 128.73H64.81C64.92 128.73 65.01 128.79 65.06 128.89L68.75 136.83C68.79 136.91 68.78 137.01 68.73 137.09C68.68 137.17 68.59 137.22 68.5 137.22H68.24ZM66.6 134.07L64.69 129.96L62.78 134.07H66.59H66.6Z" fill="url(#paint7_linear_1856_65)"/>
<path d="M77.33 137.22C77.25 137.22 77.17 137.18 77.11 137.11L71.77 130.22V136.95C71.77 137.1 71.65 137.22 71.5 137.22H71.27C71.12 137.22 71 137.1 71 136.95V129.01C71 128.86 71.12 128.74 71.27 128.74H71.46C71.54 128.74 71.62 128.78 71.68 128.85L77.02 135.74V129.01C77.02 128.86 77.14 128.74 77.29 128.74H77.52C77.67 128.74 77.79 128.86 77.79 129.01V136.95C77.79 137.1 77.67 137.22 77.52 137.22H77.33Z" fill="url(#paint8_linear_1856_65)"/>
<path d="M81.48 137.22C81.33 137.22 81.21 137.1 81.21 136.95V129.01C81.21 128.86 81.33 128.74 81.48 128.74H84.49C85.37 128.74 86.16 128.93 86.82 129.29C87.49 129.66 88.02 130.17 88.39 130.8C88.76 131.44 88.95 132.17 88.95 132.98C88.95 133.79 88.76 134.52 88.39 135.16C88.02 135.8 87.49 136.31 86.82 136.67C86.15 137.03 85.37 137.22 84.49 137.22H81.48ZM84.46 136.46C85.22 136.46 85.89 136.31 86.44 136.01C86.99 135.71 87.42 135.3 87.72 134.78C88.02 134.26 88.17 133.66 88.17 132.98C88.17 132.3 88.02 131.7 87.72 131.18C87.42 130.66 86.99 130.25 86.44 129.95C85.89 129.65 85.22 129.5 84.46 129.5H81.97V136.47H84.46V136.46Z" fill="url(#paint9_linear_1856_65)"/>
<path d="M102.21 137.22C102.12 137.22 102.04 137.18 101.99 137.11L100.07 134.44C99.82 134.48 99.55 134.5 99.26 134.5H97.07V136.95C97.07 137.1 96.95 137.22 96.8 137.22H96.57C96.42 137.22 96.3 137.1 96.3 136.95V129.01C96.3 128.86 96.42 128.74 96.57 128.74H99.26C99.95 128.74 100.55 128.85 101.05 129.08C101.56 129.31 101.96 129.64 102.24 130.07C102.52 130.5 102.66 131.02 102.66 131.63C102.66 132.24 102.52 132.75 102.24 133.18C101.96 133.61 101.56 133.95 101.05 134.18C100.99 134.2 100.94 134.23 100.88 134.25L102.72 136.81C102.78 136.89 102.79 137 102.74 137.09C102.69 137.18 102.6 137.24 102.5 137.24H102.22L102.21 137.22ZM99.28 133.74C100.14 133.74 100.8 133.55 101.24 133.18C101.67 132.81 101.88 132.3 101.88 131.62C101.88 130.94 101.67 130.42 101.24 130.06C100.8 129.69 100.14 129.5 99.28 129.5H97.07V133.75H99.28V133.74Z" fill="url(#paint10_linear_1856_65)"/>
<path d="M105.78 137.22C105.63 137.22 105.51 137.1 105.51 136.95V129.01C105.51 128.86 105.63 128.74 105.78 128.74H110.9C111.05 128.74 111.17 128.86 111.17 129.01V129.23C111.17 129.38 111.05 129.5 110.9 129.5H106.28V132.54H110.39C110.54 132.54 110.66 132.66 110.66 132.81V133.03C110.66 133.18 110.54 133.3 110.39 133.3H106.28V136.47H111.07C111.22 136.47 111.34 136.59 111.34 136.74V136.96C111.34 137.11 111.22 137.23 111.07 137.23H105.78V137.22Z" fill="url(#paint11_linear_1856_65)"/>
<path d="M116.22 137.25C115.61 137.25 115.03 137.14 114.49 136.91C113.94 136.68 113.51 136.38 113.22 136.02C113.13 135.91 113.14 135.75 113.25 135.65L113.41 135.5C113.46 135.45 113.53 135.43 113.6 135.43C113.6 135.43 113.61 135.43 113.62 135.43C113.69 135.43 113.76 135.47 113.81 135.53C114.03 135.79 114.36 136.02 114.79 136.21C115.23 136.4 115.71 136.49 116.22 136.49C116.73 136.49 117.19 136.42 117.52 136.27C117.84 136.13 118.07 135.95 118.22 135.73C118.37 135.5 118.44 135.26 118.44 134.99C118.44 134.68 118.37 134.43 118.23 134.24C118.08 134.05 117.87 133.89 117.61 133.78C117.32 133.65 117.01 133.55 116.67 133.47C116.31 133.38 115.96 133.29 115.6 133.2C115.23 133.11 114.87 132.98 114.55 132.82C114.21 132.65 113.93 132.42 113.72 132.12C113.51 131.82 113.4 131.42 113.4 130.95C113.4 130.55 113.51 130.18 113.72 129.83C113.93 129.48 114.26 129.2 114.7 128.99C115.13 128.78 115.68 128.68 116.33 128.68C116.78 128.68 117.23 128.75 117.67 128.89C118.11 129.03 118.49 129.22 118.8 129.46C118.92 129.55 118.94 129.71 118.86 129.83L118.74 130.01C118.7 130.07 118.63 130.11 118.56 130.12C118.54 130.12 118.53 130.12 118.51 130.12C118.45 130.12 118.4 130.1 118.35 130.07C118.06 129.86 117.73 129.69 117.38 129.59C117.02 129.48 116.67 129.43 116.34 129.43C115.83 129.43 115.4 129.5 115.08 129.65C114.77 129.79 114.54 129.97 114.39 130.2C114.24 130.43 114.17 130.67 114.17 130.95C114.17 131.27 114.24 131.53 114.38 131.71C114.53 131.9 114.74 132.06 115 132.17C115.29 132.3 115.61 132.4 115.95 132.48C116.31 132.57 116.67 132.66 117.03 132.75C117.4 132.85 117.75 132.98 118.07 133.13C118.41 133.3 118.69 133.53 118.9 133.81C119.12 134.11 119.22 134.49 119.22 134.96C119.22 135.36 119.11 135.74 118.89 136.08C118.67 136.43 118.34 136.71 117.89 136.91C117.46 137.11 116.9 137.21 116.23 137.21L116.22 137.25Z" fill="url(#paint12_linear_1856_65)"/>
<path d="M123.9 137.22C123.75 137.22 123.63 137.1 123.63 136.95V129.49H120.95C120.8 129.49 120.68 129.37 120.68 129.22V129C120.68 128.85 120.8 128.73 120.95 128.73H127.08C127.23 128.73 127.35 128.85 127.35 129V129.22C127.35 129.37 127.23 129.49 127.08 129.49H124.4V136.95C124.4 137.1 124.28 137.22 124.13 137.22H123.9Z" fill="url(#paint13_linear_1856_65)"/>
<path d="M134.96 137.22C134.85 137.22 134.76 137.16 134.71 137.06L133.67 134.82H129.16L128.12 137.06C128.08 137.16 127.98 137.22 127.87 137.22H127.61C127.52 137.22 127.43 137.17 127.38 137.09C127.33 137.01 127.32 136.91 127.36 136.83L131.05 128.89C131.09 128.79 131.19 128.73 131.3 128.73H131.53C131.64 128.73 131.73 128.79 131.78 128.89L135.47 136.83C135.51 136.91 135.5 137.01 135.45 137.09C135.4 137.17 135.31 137.22 135.22 137.22H134.96ZM133.32 134.07L131.41 129.96L129.5 134.07H133.31H133.32Z" fill="url(#paint14_linear_1856_65)"/>
<path d="M140.58 137.25C139.56 137.25 138.74 136.94 138.14 136.33C137.54 135.72 137.24 134.81 137.24 133.62V129C137.24 128.85 137.36 128.73 137.51 128.73H137.74C137.89 128.73 138.01 128.85 138.01 129V133.61C138.01 134.59 138.24 135.33 138.68 135.79C139.13 136.26 139.75 136.49 140.58 136.49C141.41 136.49 142.03 136.26 142.48 135.79C142.92 135.32 143.15 134.59 143.15 133.61V129C143.15 128.85 143.27 128.73 143.42 128.73H143.65C143.8 128.73 143.92 128.85 143.92 129V133.62C143.92 134.81 143.62 135.72 143.02 136.33C142.42 136.94 141.6 137.25 140.58 137.25Z" fill="url(#paint15_linear_1856_65)"/>
<path d="M153.19 137.22C153.1 137.22 153.02 137.18 152.97 137.11L151.05 134.44C150.8 134.48 150.53 134.5 150.24 134.5H148.05V136.95C148.05 137.1 147.93 137.22 147.78 137.22H147.55C147.4 137.22 147.28 137.1 147.28 136.95V129.01C147.28 128.86 147.4 128.74 147.55 128.74H150.24C150.93 128.74 151.53 128.85 152.03 129.08C152.54 129.31 152.94 129.64 153.22 130.07C153.5 130.5 153.64 131.02 153.64 131.63C153.64 132.24 153.5 132.75 153.22 133.18C152.94 133.61 152.54 133.95 152.03 134.18C151.97 134.2 151.92 134.23 151.86 134.25L153.7 136.81C153.76 136.89 153.77 137 153.72 137.09C153.67 137.18 153.58 137.24 153.48 137.24H153.2L153.19 137.22ZM150.26 133.74C151.12 133.74 151.78 133.55 152.22 133.18C152.65 132.81 152.86 132.3 152.86 131.62C152.86 130.94 152.65 130.42 152.22 130.06C151.78 129.69 151.12 129.5 150.26 129.5H148.05V133.75H150.26V133.74Z" fill="url(#paint16_linear_1856_65)"/>
<path d="M163.22 137.22C163.11 137.22 163.02 137.16 162.97 137.06L161.93 134.82H157.42L156.38 137.06C156.34 137.16 156.24 137.22 156.13 137.22H155.87C155.78 137.22 155.69 137.17 155.64 137.09C155.59 137.01 155.58 136.91 155.62 136.83L159.31 128.89C159.35 128.79 159.45 128.73 159.56 128.73H159.79C159.9 128.73 159.99 128.79 160.04 128.89L163.73 136.83C163.77 136.91 163.76 137.01 163.71 137.09C163.66 137.17 163.57 137.22 163.48 137.22H163.22ZM161.58 134.07L159.67 129.96L157.76 134.07H161.57H161.58Z" fill="url(#paint17_linear_1856_65)"/>
<path d="M172.31 137.22C172.23 137.22 172.15 137.18 172.09 137.11L166.75 130.22V136.95C166.75 137.1 166.63 137.22 166.48 137.22H166.25C166.1 137.22 165.98 137.1 165.98 136.95V129.01C165.98 128.86 166.1 128.74 166.25 128.74H166.44C166.52 128.74 166.6 128.78 166.66 128.85L172 135.74V129.01C172 128.86 172.12 128.74 172.27 128.74H172.5C172.65 128.74 172.77 128.86 172.77 129.01V136.95C172.77 137.1 172.65 137.22 172.5 137.22H172.31Z" fill="url(#paint18_linear_1856_65)"/>
<path d="M178.21 137.22C178.06 137.22 177.94 137.1 177.94 136.95V129.49H175.26C175.11 129.49 174.99 129.37 174.99 129.22V129C174.99 128.85 175.11 128.73 175.26 128.73H181.39C181.54 128.73 181.66 128.85 181.66 129V129.22C181.66 129.37 181.54 129.49 181.39 129.49H178.71V136.95C178.71 137.1 178.59 137.22 178.44 137.22H178.21Z" fill="url(#paint19_linear_1856_65)"/>
</g>
<defs>
<linearGradient id="paint0_linear_1856_65" x1="74.69" y1="1.29006" x2="74.17" y2="0.380059" gradientUnits="userSpaceOnUse">
<stop stop-color="#EDDECC"/>
<stop offset="0.52" stop-color="#CCAD85"/>
<stop offset="1" stop-color="#EDDECC"/>
</linearGradient>
<linearGradient id="paint1_linear_1856_65" x1="122.38" y1="58.1" x2="84.98" y2="-6.69" gradientUnits="userSpaceOnUse">
<stop stop-color="#EDDECC"/>
<stop offset="0.52" stop-color="#CCAD85"/>
<stop offset="1" stop-color="#EDDECC"/>
</linearGradient>
<linearGradient id="paint2_linear_1856_65" x1="108.8" y1="68.7499" x2="94.54" y2="44.0599" gradientUnits="userSpaceOnUse">
<stop stop-color="#EDDECC"/>
<stop offset="0.52" stop-color="#CCAD85"/>
<stop offset="1" stop-color="#EDDECC"/>
</linearGradient>
<linearGradient id="paint3_linear_1856_65" x1="24.95" y1="137.25" x2="24.95" y2="128.7" gradientUnits="userSpaceOnUse">
<stop stop-color="#EDDECC"/>
<stop offset="0.52" stop-color="#CCAD85"/>
<stop offset="1" stop-color="#EDDECC"/>
</linearGradient>
<linearGradient id="paint4_linear_1856_65" x1="34.31" y1="137.22" x2="34.31" y2="128.73" gradientUnits="userSpaceOnUse">
<stop stop-color="#EDDECC"/>
<stop offset="0.52" stop-color="#CCAD85"/>
<stop offset="1" stop-color="#EDDECC"/>
</linearGradient>
<linearGradient id="paint5_linear_1856_65" x1="43.45" y1="137.22" x2="43.45" y2="128.73" gradientUnits="userSpaceOnUse">
<stop stop-color="#EDDECC"/>
<stop offset="0.52" stop-color="#CCAD85"/>
<stop offset="1" stop-color="#EDDECC"/>
</linearGradient>
<linearGradient id="paint6_linear_1856_65" x1="51.64" y1="137.22" x2="51.64" y2="128.73" gradientUnits="userSpaceOnUse">
<stop stop-color="#EDDECC"/>
<stop offset="0.52" stop-color="#CCAD85"/>
<stop offset="1" stop-color="#EDDECC"/>
</linearGradient>
<linearGradient id="paint7_linear_1856_65" x1="64.69" y1="137.22" x2="64.69" y2="128.73" gradientUnits="userSpaceOnUse">
<stop stop-color="#EDDECC"/>
<stop offset="0.52" stop-color="#CCAD85"/>
<stop offset="1" stop-color="#EDDECC"/>
</linearGradient>
<linearGradient id="paint8_linear_1856_65" x1="74.4" y1="137.22" x2="74.4" y2="128.73" gradientUnits="userSpaceOnUse">
<stop stop-color="#EDDECC"/>
<stop offset="0.52" stop-color="#CCAD85"/>
<stop offset="1" stop-color="#EDDECC"/>
</linearGradient>
<linearGradient id="paint9_linear_1856_65" x1="85.07" y1="137.22" x2="85.07" y2="128.73" gradientUnits="userSpaceOnUse">
<stop stop-color="#EDDECC"/>
<stop offset="0.52" stop-color="#CCAD85"/>
<stop offset="1" stop-color="#EDDECC"/>
</linearGradient>
<linearGradient id="paint10_linear_1856_65" x1="99.53" y1="137.22" x2="99.53" y2="128.73" gradientUnits="userSpaceOnUse">
<stop stop-color="#EDDECC"/>
<stop offset="0.52" stop-color="#CCAD85"/>
<stop offset="1" stop-color="#EDDECC"/>
</linearGradient>
<linearGradient id="paint11_linear_1856_65" x1="108.42" y1="137.22" x2="108.42" y2="128.73" gradientUnits="userSpaceOnUse">
<stop stop-color="#EDDECC"/>
<stop offset="0.52" stop-color="#CCAD85"/>
<stop offset="1" stop-color="#EDDECC"/>
</linearGradient>
<linearGradient id="paint12_linear_1856_65" x1="116.18" y1="137.25" x2="116.18" y2="128.7" gradientUnits="userSpaceOnUse">
<stop stop-color="#EDDECC"/>
<stop offset="0.52" stop-color="#CCAD85"/>
<stop offset="1" stop-color="#EDDECC"/>
</linearGradient>
<linearGradient id="paint13_linear_1856_65" x1="124.01" y1="137.22" x2="124.01" y2="128.73" gradientUnits="userSpaceOnUse">
<stop stop-color="#EDDECC"/>
<stop offset="0.52" stop-color="#CCAD85"/>
<stop offset="1" stop-color="#EDDECC"/>
</linearGradient>
<linearGradient id="paint14_linear_1856_65" x1="131.42" y1="137.22" x2="131.42" y2="128.73" gradientUnits="userSpaceOnUse">
<stop stop-color="#EDDECC"/>
<stop offset="0.52" stop-color="#CCAD85"/>
<stop offset="1" stop-color="#EDDECC"/>
</linearGradient>
<linearGradient id="paint15_linear_1856_65" x1="140.58" y1="137.25" x2="140.58" y2="128.73" gradientUnits="userSpaceOnUse">
<stop stop-color="#EDDECC"/>
<stop offset="0.52" stop-color="#CCAD85"/>
<stop offset="1" stop-color="#EDDECC"/>
</linearGradient>
<linearGradient id="paint16_linear_1856_65" x1="150.51" y1="137.22" x2="150.51" y2="128.73" gradientUnits="userSpaceOnUse">
<stop stop-color="#EDDECC"/>
<stop offset="0.52" stop-color="#CCAD85"/>
<stop offset="1" stop-color="#EDDECC"/>
</linearGradient>
<linearGradient id="paint17_linear_1856_65" x1="159.68" y1="137.22" x2="159.68" y2="128.73" gradientUnits="userSpaceOnUse">
<stop stop-color="#EDDECC"/>
<stop offset="0.52" stop-color="#CCAD85"/>
<stop offset="1" stop-color="#EDDECC"/>
</linearGradient>
<linearGradient id="paint18_linear_1856_65" x1="169.38" y1="137.22" x2="169.38" y2="128.73" gradientUnits="userSpaceOnUse">
<stop stop-color="#EDDECC"/>
<stop offset="0.52" stop-color="#CCAD85"/>
<stop offset="1" stop-color="#EDDECC"/>
</linearGradient>
<linearGradient id="paint19_linear_1856_65" x1="178.33" y1="137.22" x2="178.33" y2="128.73" gradientUnits="userSpaceOnUse">
<stop stop-color="#EDDECC"/>
<stop offset="0.52" stop-color="#CCAD85"/>
<stop offset="1" stop-color="#EDDECC"/>
</linearGradient>
<clipPath id="clip0_1856_65">
<rect width="203.12" height="137.25" fill="white"/>
</clipPath>
</defs>
</svg>
