<svg width="100" height="92" viewBox="0 0 100 92" fill="none" xmlns="http://www.w3.org/2000/svg">
<path d="M70.5642 0H69.4736C59.3855 0 49.8532 3.64932 42.4601 9.95175C40.9815 11.2101 39.5868 12.5839 38.2865 14.0415C35.6963 16.9673 33.4836 20.2915 31.7743 23.9513L0 91.6317C16.81 91.6317 32.1099 81.9106 39.2512 66.6946L70.5642 0Z" fill="white"/>
<path d="M27.5588 29.3415V0.0105286C18.0475 0.0105286 9.6687 4.82387 4.71904 12.154C3.7333 13.6221 2.8734 15.1846 2.18129 16.831C0.786575 20.1238 0.0210571 23.7521 0.0210571 27.5588V88.0348L27.5588 29.3415Z" fill="white"/>
<path d="M29.4357 91.6422H30.5263C40.6144 91.6422 50.1467 87.9929 57.5397 81.6905C59.0183 80.4321 60.4131 79.0583 61.7134 77.6007C64.3036 74.6749 66.5163 71.3507 68.2256 67.6909L99.9999 0.0105286C83.1899 0.0105286 67.89 9.73158 60.7486 24.9476L29.4357 91.6422Z" fill="white"/>
<path d="M72.4518 62.3007V91.6316C81.9631 91.6316 90.3419 86.8183 95.2915 79.4882C96.2773 78.0201 97.1372 76.4575 97.8293 74.8112C99.224 71.5184 99.9895 67.89 99.9895 64.0834V3.60733L72.4518 62.3007Z" fill="white"/>
</svg>
