<svg width="100" height="32" viewBox="0 0 100 32" fill="none" xmlns="http://www.w3.org/2000/svg">
<path d="M89.4057 0C83.8138 0 79.2232 4.35658 78.8348 9.85026H69.7005V11.3477H78.7646C78.3809 16.0178 74.4642 19.7005 69.7005 19.7005V21.1979C74.4689 21.1979 78.3903 24.8807 78.774 29.5508H69.7005C64.6795 29.5508 60.599 25.4656 60.599 20.4492V10.599C60.599 5.57792 64.6841 1.49743 69.7005 1.49743H79.5508V0H69.7005C63.8559 0 59.1015 4.75433 59.1015 10.599V15.0304C57.913 13.037 56.088 11.4694 53.912 10.599C57.8241 9.04072 60.599 5.21292 60.599 0.748716V0H50C44.408 0 39.8128 4.35658 39.4291 9.85026H30.2995V11.3477H39.373C38.9892 16.0178 35.0679 19.7005 30.2995 19.7005V21.1979C35.0679 21.1979 38.9892 24.8807 39.373 29.5508H30.2995C25.2784 29.5508 21.1979 25.4656 21.1979 20.4492V10.599H19.7005V20.4492C19.7005 25.4703 15.6153 29.5508 10.599 29.5508H1.49742V20.4492V1.49743H10.599C15.62 1.49743 19.7005 5.5826 19.7005 10.599H21.1979C21.1979 5.57792 25.2831 1.49743 30.2995 1.49743H40.1497V0H30.2995C25.8353 0 22.0075 2.77492 20.4492 6.68694C18.891 2.77492 15.0632 0 10.599 0H0V20.4492V31.0482H10.599C15.0632 31.0482 18.891 28.2733 20.4492 24.3613C22.0075 28.2733 25.8353 31.0482 30.2995 31.0482H50C54.4642 31.0482 58.292 28.2686 59.8503 24.3519C61.4085 28.2686 65.2363 31.0482 69.7005 31.0482H80.2995V30.2995C80.2995 25.8353 77.5246 22.0075 73.6125 20.4492C77.5246 18.891 80.2995 15.0632 80.2995 10.599C80.2995 5.57792 84.3847 1.49743 89.401 1.49743C94.4174 1.49743 98.5026 5.5826 98.5026 10.599V20.4492C98.5026 25.4703 94.4174 29.5508 89.401 29.5508C86.6495 29.5508 84.0758 28.3248 82.3397 26.1909C81.0248 24.5765 80.2995 22.5363 80.2995 20.4446H78.8021C78.8021 22.8779 79.6444 25.2504 81.1792 27.1362C83.2007 29.621 86.2003 31.0435 89.401 31.0435C95.2457 31.0435 100 26.2892 100 20.4446V10.5943C100.005 4.75433 95.2504 0 89.4057 0ZM41.694 23.7248C41.694 23.7248 41.6986 23.7249 41.6986 23.7202C41.694 23.7249 41.694 23.7249 41.6893 23.7295L41.694 23.7248ZM50 29.5508H40.9265C41.1137 27.3046 42.1338 25.1802 43.795 23.6359C45.4843 22.0636 47.6884 21.1979 49.9953 21.1979V19.7005C47.562 19.7005 45.2784 18.7553 43.5564 17.0332C41.839 15.3159 40.8891 13.0276 40.8891 10.5943C40.8891 5.57323 44.9743 1.49275 49.9906 1.49275H59.0641C58.6804 6.16285 54.759 9.84558 49.9906 9.84558V11.343C55.0117 11.343 59.0922 15.4282 59.0922 20.4446C59.1062 25.4703 55.0211 29.5508 50 29.5508Z" fill="white"/>
</svg>
