<svg width="256" height="256" viewBox="0 0 256 256" fill="none" xmlns="http://www.w3.org/2000/svg">
<rect width="256" height="256" fill="black"/>
<path d="M100.992 101.74C94.8983 102.098 88.7789 102.406 82.6853 102.687L83.6407 101.74C83.9505 108.167 84.3895 121.098 84.596 127.526C84.88 136.129 85.1124 144.733 85.2673 153.311L82.5304 150.751C97.4545 149.547 112.379 148.472 127.329 147.499L124.23 150.751C124.127 139.177 124.127 115.849 124.23 104.275V101.177L127.329 100.997C143.544 100.178 159.759 99.4865 176 99C175.639 117.104 175.096 135.208 174.348 153.311L174.296 154.412L173.263 154.361C166.343 154.054 159.423 153.721 152.503 153.311C159.423 152.902 166.343 152.569 173.263 152.261L172.204 153.311C171.869 144.708 171.507 136.104 171.275 127.526C170.991 118.922 170.784 110.318 170.604 101.74L173.418 104.377C165.801 105.018 158.184 105.53 150.567 106.067C142.95 106.631 135.333 107.143 127.69 107.578L130.814 104.301C130.918 117.411 130.866 140.764 130.763 153.849C113.85 154.745 96.9381 155.437 80 156C80.2582 142.633 80.7746 128.063 81.2394 114.646L81.7558 101.74L81.8074 100.767C88.2109 101.049 94.6143 101.356 101.018 101.74H100.992Z" fill="white"/>
</svg>
