<svg width="100" height="29" viewBox="0 0 100 29" fill="none" xmlns="http://www.w3.org/2000/svg">
<path d="M67.9566 14.4046C67.8763 14.4566 67.881 14.5464 67.8574 14.6174C67.2333 16.8962 66.7368 19.2697 65.8385 21.4635C65.0206 23.454 63.7866 25.3499 61.8954 26.4562C58.2406 28.5885 54.3022 26.0827 52.8035 22.5509C52.411 21.629 52.047 20.6975 51.8295 19.7189C51.8153 19.6527 51.8153 19.5723 51.7349 19.5297C51.6309 19.5817 51.6167 19.6952 51.5742 19.7851C50.3544 22.3713 48.7279 25.4964 46.1559 26.9668C43.3475 28.5696 40.8984 26.4231 40.1041 23.6904C39.4375 21.4067 39.9481 18.9293 40.4681 16.674C40.7707 15.3549 41.0544 14.0547 41.1868 12.7073C41.2341 12.2156 41.3428 11.6245 41.8014 11.4543C41.2719 11.6482 40.7566 11.9035 40.2412 12.1305C40.0946 12.1966 39.9433 12.2628 39.8346 12.381C39.6975 12.5323 39.6502 12.7404 39.6029 12.9389C38.3358 18.3052 35.9955 24.4137 30.4921 25.8038C27.5986 26.5366 23.5183 27.1418 20.7336 25.7896C19.5232 25.1986 18.5492 24.1821 17.8637 23.0237C16.6344 20.9529 16.4216 18.5605 17.1923 16.2911C17.6226 15.0192 18.2939 13.8798 19.1497 12.8444C19.7312 12.1399 20.2844 11.4071 20.9983 10.835C22.0669 9.98394 23.1921 9.21801 24.5963 9.07617C25.7027 8.96742 26.7948 9.05254 27.7735 9.66245C28.5867 10.1731 29.0737 10.9106 29.2014 11.8657C29.3479 12.972 29.1683 14.0169 28.5631 14.972C28.2652 15.44 27.8634 15.7899 27.3858 16.0783C26.5206 16.6031 25.575 16.9246 24.6105 17.1988C23.4143 17.5393 22.2087 17.8371 20.9841 18.031C20.4641 18.1113 20.4593 18.1019 20.4262 18.6409C20.3128 20.3146 21.386 22.0497 23.0172 22.8204C24.3788 23.4634 25.3906 23.9315 26.9556 23.7897C29.7167 23.5391 32.0051 21.681 33.7544 19.6574C35.5227 17.6102 37.2626 15.1516 37.4895 12.381C37.5037 12.2297 37.447 12.1446 37.3051 12.0926C35.9482 11.5915 34.8513 10.8444 34.3596 9.4024C33.7355 7.58213 34.6055 4.45221 37.1113 5.27488C38.8796 5.85642 39.4942 7.94618 39.532 9.61043C39.5367 9.78537 39.5415 9.9603 39.5462 10.14C39.5509 10.3102 39.6313 10.348 39.7779 10.2865C39.8535 10.2534 39.9292 10.2298 40.0001 10.1967C41.2814 9.57734 42.175 8.68848 42.8794 7.47339C43.461 6.47106 45.4987 5.58692 45.2765 7.53957C45.2009 8.19203 45.0117 8.82558 44.8557 9.45913C44.2978 11.7286 43.7021 13.9885 43.2955 16.2911C42.9645 18.187 42.6856 20.707 43.1915 22.5887C43.6217 24.201 45.2103 24.0497 46.2505 23.0663C49.5175 19.9836 50.6475 15.5488 51.82 11.3787C51.8862 11.1376 51.9572 10.9012 52.1037 10.6931C52.5671 10.0312 53.4937 10.0312 53.9524 10.6979C53.9902 10.7499 54.028 10.8019 54.0516 10.8633C54.8223 13.0949 54.6379 15.2982 55.106 17.6054C55.4748 19.4399 56.34 23.0237 58.7607 23.1277C59.7394 23.1703 60.5668 22.428 61.2145 21.6904C64.2735 18.2343 65.5265 14.4188 66.3633 10.0218C66.6895 8.31023 66.9874 6.58926 67.4413 4.90137C67.4886 4.7217 67.5548 4.55149 67.654 4.39074C67.8999 3.99359 68.2498 3.78556 68.7178 3.83284C69.1859 3.88012 69.4885 4.15908 69.6445 4.59405C69.7155 4.78317 69.7296 4.98647 69.7249 5.18505C69.7154 5.54437 69.7013 5.9037 69.6823 6.26303C69.6729 6.44742 69.7391 6.50888 69.9235 6.48051C71.1291 6.29612 73.4789 5.7524 74.2921 7.02896C75.4978 8.92488 70.7461 9.41659 69.7958 9.8232C69.5783 9.91775 69.5689 10.0029 69.5878 10.1731C69.6918 11.2463 69.9188 12.2912 70.2166 13.3219C70.4625 14.1729 70.7698 15.0098 71.1149 15.8277C71.6681 17.1374 72.4624 18.2768 73.5215 19.2319C73.5924 19.2981 73.6633 19.3643 73.7437 19.4163C75.4789 20.5179 77.2518 21.5439 79.2754 22.045C79.5686 22.1159 79.8711 22.1585 80.169 22.2247C80.3723 22.2672 80.4527 22.201 80.4291 21.9883C80.1312 19.5912 80.6796 17.3407 81.682 15.1847C82.202 14.0642 82.9112 13.0619 83.9798 12.3763C84.5897 11.9839 85.2469 11.7002 85.9702 11.6577C87.3839 11.5726 88.651 12.5843 89.1994 13.8372C89.6912 14.9578 89.9748 16.4235 89.7526 17.6338C89.3224 19.9883 88.5044 22.1679 86.7362 23.8842C86.6842 23.9362 86.5849 23.9835 86.6274 24.0781C86.67 24.1773 86.7787 24.1537 86.8638 24.1537C88.0222 24.1395 89.1522 23.9882 90.1971 23.4587C92.1923 22.4469 94.0645 21.3216 95.8659 19.9978C96.4569 19.5628 100.367 17.4211 99.7287 19.7851C99.6294 20.1444 99.4072 20.4281 99.1613 20.6928C96.7737 23.2412 94.2678 25.799 90.8968 27.104C89.0009 27.8368 87.0199 28.0306 85.0199 27.5484C84.0223 27.3073 83.1004 26.8723 82.3155 26.1915C82.1264 26.026 81.9231 25.9409 81.663 25.9503C78.9965 26.0402 76.6088 25.1891 74.3725 23.8086C73.2142 23.0946 72.278 22.1538 71.4506 21.09C70.2119 19.4919 69.0583 17.8419 68.4247 15.8845C68.2923 15.4826 68.1694 15.076 68.0748 14.6599C68.0323 14.5795 68.0417 14.4755 67.9566 14.4046ZM82.202 20.2058C82.202 20.863 82.254 21.3547 82.4904 21.8086C82.585 21.993 82.6985 22.0403 82.8971 21.9694C83.403 21.7803 83.8332 21.4871 84.2114 21.1042C84.8166 20.4942 85.332 19.8087 85.8851 19.1562C86.6794 18.2201 87.573 17.0759 87.9229 15.8514C88.3437 14.3621 87.2752 12.4472 85.5163 13.4023C84.9726 13.6954 84.514 14.0878 84.1452 14.5795C82.8403 16.2911 82.3581 18.2721 82.202 20.2058ZM27.2913 12.5607C27.296 12.3527 27.2818 12.1446 27.2298 11.9413C27.0596 11.3172 26.2417 10.8492 25.6696 11.0856C24.8611 11.4212 24.1046 11.8704 23.4994 12.5134C22.3884 13.6954 21.6461 15.1138 20.9936 16.5842C20.9038 16.7922 20.9321 16.8301 21.1591 16.7828C22.5444 16.5133 23.9202 16.1918 25.2393 15.6906C25.8587 15.4542 26.3788 15.0571 26.7381 14.4708C27.0974 13.8845 27.2582 13.2415 27.2913 12.5607ZM37.3997 9.78065C37.3477 9.27948 37.3335 8.75939 37.1586 8.26295C37.0404 7.92254 36.856 7.62941 36.5676 7.41192C36.3974 7.27954 36.3217 7.30791 36.2697 7.52067C36.1893 7.86581 36.1704 8.21095 36.265 8.56082C36.4163 9.11872 36.7567 9.53951 37.1917 9.89411C37.2437 9.93666 37.291 10.0265 37.3713 9.97449C37.4281 9.9414 37.3997 9.86102 37.3997 9.78065Z" fill="white"/>
<path d="M87.2091 28.0212C86.4526 28.0212 85.6961 27.9313 84.9491 27.7517C83.8711 27.4916 82.935 27.0188 82.1596 26.3522C81.9989 26.2103 81.8428 26.1489 81.6443 26.1583C79.1668 26.234 76.7461 25.5295 74.245 23.9882C73.1764 23.331 72.2072 22.428 71.2711 21.2223C69.8763 19.4257 68.822 17.8418 68.2168 15.9554C68.1128 15.6386 68.0277 15.3502 67.952 15.0712C67.8291 15.5251 67.7156 15.979 67.5974 16.4376C67.1624 18.1397 66.7086 19.8985 66.0325 21.5438C65.0538 23.9315 63.6968 25.643 62.0042 26.6311C60.5149 27.5011 58.879 27.676 57.2762 27.1465C55.281 26.4846 53.5459 24.7967 52.6286 22.6313C52.2977 21.8512 51.9336 20.9528 51.702 20.0072C50.3356 22.896 48.7233 25.7376 46.2648 27.1418C45.1442 27.78 43.9859 27.8888 42.9174 27.4585C41.5557 26.9054 40.4352 25.5201 39.9198 23.7471C39.2626 21.4871 39.7165 19.09 40.2791 16.6267C40.5676 15.3738 40.856 14.0405 40.9931 12.6836C41.012 12.5087 41.0404 12.225 41.1349 11.946C41.0262 11.9933 40.9174 12.0453 40.8087 12.0926C40.6479 12.1682 40.4872 12.2392 40.3264 12.3101C40.1988 12.3668 40.0664 12.4236 39.986 12.5134C39.8867 12.6221 39.8442 12.7971 39.8016 12.9767C38.648 17.856 36.44 24.5035 30.5442 25.9929C27.5893 26.7399 23.4759 27.3403 20.6486 25.9645C19.4808 25.3971 18.4595 24.4137 17.6936 23.123C16.4501 21.0285 16.2043 18.5794 17.0033 16.2249C17.4241 14.9861 18.0907 13.8041 18.9938 12.712C19.0836 12.6032 19.1734 12.4898 19.2633 12.381C19.7503 11.7853 20.2514 11.1706 20.8708 10.6742C21.9346 9.82789 23.1166 9.01941 24.5728 8.87284C25.9345 8.73573 26.9841 8.92958 27.8777 9.49221C28.7476 10.0359 29.263 10.8255 29.3953 11.8373C29.5561 13.0335 29.3339 14.1256 28.7287 15.0807C28.4403 15.5393 28.0337 15.9223 27.4852 16.2532C26.5585 16.8111 25.5373 17.1468 24.6626 17.3974C23.2821 17.7945 22.1237 18.0593 21.0126 18.2343L20.9843 18.239C20.8424 18.2626 20.6959 18.2862 20.6675 18.3099C20.6438 18.343 20.6344 18.5132 20.6249 18.6645C20.5209 20.2484 21.5611 21.9221 23.1024 22.6455C24.4451 23.279 25.4144 23.7376 26.9415 23.5958C29.211 23.3877 31.4567 22.0214 33.608 19.5297C35.2013 17.6858 37.0594 15.2083 37.2958 12.3668C37.3005 12.3101 37.3005 12.3054 37.2391 12.2817C35.5748 11.6671 34.6292 10.8019 34.1706 9.46857C33.7687 8.30076 33.9247 6.51831 34.8798 5.5538C35.2959 5.13301 36.0287 4.71222 37.1776 5.09046C39.0026 5.69091 39.6929 7.8185 39.7354 9.61041L39.7402 9.82317C39.7449 9.90827 39.7449 9.9981 39.7449 10.0832C39.7638 10.0785 39.778 10.069 39.7969 10.0643C39.8347 10.0501 39.8773 10.0359 39.9151 10.017C41.1113 9.44021 41.9954 8.59862 42.7046 7.36935C43.1159 6.66015 44.1845 5.98405 44.8984 6.22045C45.1584 6.30555 45.584 6.59396 45.4752 7.55846C45.4137 8.08327 45.2814 8.59862 45.1537 9.09506C45.1206 9.23217 45.0828 9.36928 45.0497 9.50639C44.9646 9.85153 44.8795 10.1967 44.7896 10.5418C44.3216 12.4283 43.8346 14.3762 43.4942 16.3241C43.0308 18.9765 42.993 21.0663 43.3854 22.5367C43.532 23.0851 43.8346 23.435 44.2601 23.5579C44.8133 23.714 45.5414 23.4634 46.1182 22.9244C49.1961 20.0214 50.3498 15.8939 51.4703 11.9035L51.631 11.3267C51.7067 11.0524 51.7823 10.8113 51.9431 10.5844C52.2031 10.2156 52.5955 10.0028 53.0305 10.0028H53.0352C53.4702 10.0028 53.8626 10.2203 54.1227 10.5938L54.1369 10.6175C54.1747 10.6695 54.2172 10.7309 54.2456 10.8066C54.7137 12.1635 54.8366 13.5299 54.9595 14.8537C55.0399 15.7379 55.1203 16.6551 55.3047 17.5723C55.5647 18.8725 56.3637 22.8346 58.7703 22.9339C59.7017 22.9622 60.4865 22.2199 61.0681 21.5627C64.3067 17.9033 65.4367 13.8372 66.1743 9.98865C66.2263 9.70497 66.2831 9.42129 66.3351 9.13761C66.5998 7.72867 66.8741 6.27245 67.2523 4.85406C67.309 4.63657 67.3847 4.45218 67.4887 4.29143C67.7866 3.8139 68.2168 3.58696 68.7463 3.63896C69.2664 3.69097 69.6494 4.00302 69.8432 4.53256C69.9141 4.72641 69.9425 4.93917 69.9378 5.19921C69.9283 5.56326 69.9141 5.92258 69.8952 6.2819C69.8952 6.28663 69.8952 6.28664 69.8952 6.29137C69.9 6.29137 69.9 6.29137 69.9047 6.29137C70.0229 6.27246 70.1505 6.25354 70.2829 6.2299C71.6304 6.00296 73.6634 5.66727 74.4719 6.93437C74.7083 7.30788 74.7603 7.66249 74.6279 7.99344C74.2355 8.95322 72.3396 9.40237 70.9543 9.7286C70.4862 9.83735 70.0843 9.93192 69.8858 10.017C69.8101 10.0501 69.7912 10.069 69.7912 10.069C69.7912 10.0737 69.7912 10.1068 69.7959 10.1589C69.8905 11.1281 70.0938 12.1493 70.42 13.2746C70.647 14.0642 70.9401 14.8774 71.3089 15.7615C71.8526 17.0523 72.6422 18.1728 73.6634 19.0947L73.7107 19.1373C73.7627 19.1846 73.81 19.2271 73.8573 19.2602C75.4128 20.2531 77.252 21.35 79.3275 21.8606C79.4977 21.9032 79.6774 21.9363 79.8524 21.9694C79.9753 21.993 80.0935 22.0119 80.2164 22.0403C80.2259 22.0403 80.2306 22.045 80.2353 22.045C80.2353 22.0403 80.2353 22.0308 80.2353 22.0261C79.9611 19.8087 80.3772 17.5487 81.5024 15.1138C82.1076 13.8041 82.883 12.8585 83.8711 12.2203C84.5945 11.7569 85.2801 11.511 85.9609 11.4685C87.3509 11.3834 88.7599 12.329 89.384 13.7663C89.9419 15.0381 90.1593 16.5369 89.9513 17.6763C89.4501 20.4233 88.4998 22.4232 86.9538 23.9598C88.2398 23.9362 89.2469 23.7234 90.1073 23.2884C92.1687 22.2436 94.0174 21.1183 95.7478 19.8465C96.0268 19.6432 98.7454 18.012 99.6862 18.6598C99.9983 18.8725 100.079 19.2744 99.9226 19.8512C99.8092 20.2673 99.5491 20.5841 99.308 20.8441C96.7029 23.6241 94.2774 26.026 90.9726 27.3025C89.7007 27.78 88.4478 28.0212 87.2091 28.0212ZM81.6726 25.7565C81.9516 25.7565 82.1927 25.851 82.4196 26.0496C83.143 26.6784 84.0224 27.1181 85.039 27.364C86.9301 27.8179 88.8686 27.6713 90.7976 26.929C94.0268 25.6808 96.4145 23.3121 98.9865 20.5699C99.204 20.3382 99.4167 20.0782 99.5066 19.7472C99.6153 19.3548 99.5869 19.0995 99.4262 18.9907C98.8116 18.5699 96.4901 19.7756 95.9511 20.1727C94.2018 21.4587 92.339 22.5982 90.2539 23.6525C89.3178 24.1253 88.2256 24.357 86.8309 24.3712H86.8025C86.7221 24.3759 86.4999 24.3854 86.4101 24.1726C86.3202 23.9598 86.4857 23.8227 86.5424 23.7802L86.5661 23.7612C88.0932 22.2767 89.0341 20.3287 89.5258 17.6196C89.7196 16.5558 89.5116 15.1421 88.9868 13.9412C88.4242 12.6552 87.1807 11.8136 85.9514 11.8846C85.3415 11.9224 84.7222 12.1446 84.0555 12.5749C83.1336 13.1659 82.4055 14.0594 81.8334 15.2982C80.7365 17.6622 80.3346 19.8512 80.5994 21.993C80.6088 22.0592 80.6325 22.253 80.4954 22.376C80.3582 22.5036 80.1644 22.4611 80.1029 22.4469C79.9847 22.4232 79.8665 22.3996 79.7531 22.3807C79.5734 22.3476 79.389 22.3145 79.2046 22.2672C77.0676 21.7424 75.2 20.6219 73.6161 19.6148C73.5358 19.5628 73.4696 19.5013 73.4128 19.4493L73.3703 19.4115C72.3065 18.4517 71.4791 17.2792 70.9117 15.9364C70.5335 15.0381 70.2404 14.2107 70.0087 13.407C69.6777 12.2581 69.4697 11.2132 69.3751 10.2203C69.3562 10.0217 69.3657 9.81371 69.7061 9.66714C69.9331 9.56785 70.3349 9.47329 70.8408 9.35509C72.0654 9.06668 73.9235 8.63172 74.2355 7.86106C74.3206 7.65303 74.2781 7.42609 74.1126 7.16605C73.4459 6.12116 71.5689 6.43794 70.3302 6.64597C70.1931 6.66961 70.0654 6.68852 69.9472 6.70743C69.8905 6.71689 69.7156 6.74052 69.5879 6.62705C69.4603 6.51358 69.4744 6.33864 69.4744 6.2819C69.4933 5.92258 69.5075 5.56798 69.517 5.20866C69.5217 5.00063 69.5028 4.83515 69.4461 4.69331C69.3042 4.30561 69.0536 4.09758 68.6849 4.05976C68.3114 4.02194 68.0277 4.17324 67.8102 4.52311C67.7298 4.65076 67.6684 4.79733 67.6211 4.97699C67.2476 6.37647 66.9733 7.82796 66.7086 9.23217C66.6566 9.51585 66.5998 9.79952 66.5478 10.0832C65.8008 13.9885 64.6519 18.1113 61.3518 21.8464C60.7135 22.5698 59.8294 23.4067 58.7372 23.3499C56.0186 23.2364 55.1723 19.0475 54.8981 17.6669C54.709 16.7307 54.6239 15.7993 54.5435 14.9057C54.4205 13.5488 54.3071 12.2628 53.8532 10.9531C53.8437 10.9295 53.8201 10.8964 53.7964 10.8633L53.7775 10.8397C53.5979 10.5749 53.3189 10.4236 53.0211 10.4236C52.7327 10.4236 52.4442 10.5702 52.2599 10.835C52.1369 11.0099 52.0707 11.2226 52.0046 11.459L51.8438 12.0359C50.7091 16.0783 49.5365 20.2578 46.3782 23.2364C45.6927 23.8842 44.8322 24.1631 44.1372 23.9646C43.74 23.8511 43.22 23.5343 42.9883 22.6644C42.577 21.1372 42.6148 18.9907 43.0876 16.2816C43.4327 14.3242 43.9197 12.3621 44.3925 10.4709C44.4776 10.1258 44.5627 9.78061 44.6478 9.43547C44.6809 9.29836 44.7187 9.16125 44.7518 9.01941C44.8748 8.53715 45.0071 8.03599 45.0639 7.53955C45.1064 7.18022 45.0828 6.73579 44.7613 6.62705C44.2979 6.47576 43.3949 6.98166 43.0403 7.5963C42.2885 8.89649 41.3477 9.78535 40.0758 10.4C40.0286 10.4236 39.9766 10.4425 39.9293 10.4615C39.9009 10.4709 39.8725 10.4804 39.8489 10.4945C39.7071 10.556 39.5841 10.556 39.4849 10.4898C39.3903 10.4284 39.3383 10.3196 39.3336 10.1683C39.3336 10.0643 39.3288 9.96029 39.3241 9.85627L39.3194 9.63877C39.2815 7.98398 38.6622 6.02187 37.0358 5.48761C36.2698 5.23702 35.6363 5.35996 35.1493 5.85167C34.3172 6.69798 34.1801 8.32912 34.5347 9.35509C34.9507 10.5607 35.8207 11.355 37.362 11.9224C37.5889 12.0075 37.6977 12.1777 37.6788 12.4188C37.4329 15.3738 35.5275 17.9222 33.8964 19.8087C31.6742 22.3807 29.3433 23.7943 26.9652 24.0118C25.334 24.1584 24.2655 23.6572 22.9227 23.0237C21.2112 22.2152 20.1001 20.4186 20.2183 18.6503C20.2609 18.0309 20.3318 17.9506 20.9181 17.8607L20.9464 17.856C22.0433 17.6811 23.1875 17.421 24.5492 17.0286C25.4002 16.7828 26.3883 16.4613 27.2772 15.927C27.7689 15.6291 28.133 15.2887 28.3883 14.8868C28.9415 14.0169 29.1448 13.0145 28.9982 11.9129C28.88 11.0241 28.4308 10.3338 27.6649 9.85154C26.8517 9.34091 25.8825 9.16598 24.6154 9.29364C23.3341 9.42129 22.2939 10.0737 21.1214 11.0099C20.5351 11.4827 20.0434 12.0784 19.5706 12.66C19.4808 12.7734 19.3909 12.8822 19.2964 12.9956C18.4264 14.05 17.7787 15.1894 17.3768 16.3809C16.6156 18.6219 16.852 20.9528 18.034 22.948C18.7574 24.1726 19.7219 25.0993 20.8188 25.6335C23.5421 26.9574 27.5562 26.3664 30.445 25.6335C36.128 24.1962 38.2792 17.6905 39.4092 12.92C39.4612 12.7025 39.5179 12.4614 39.6882 12.2723C39.8253 12.121 40.0144 12.0406 40.1609 11.9744C40.3217 11.9035 40.4777 11.8326 40.6385 11.7616C40.9931 11.6009 41.3619 11.4307 41.7354 11.2936L41.8725 11.6718C41.5273 11.7995 41.4328 12.2912 41.3855 12.7545C41.2484 14.1351 40.9552 15.4826 40.6621 16.7497C40.1089 19.1562 39.6645 21.5013 40.2981 23.6667C40.7803 25.3215 41.811 26.6122 43.0639 27.1181C44.0143 27.5011 45.0497 27.4018 46.0615 26.825C48.4633 25.4539 50.0472 22.6076 51.3994 19.733C51.4088 19.7141 51.4135 19.6952 51.423 19.681C51.4561 19.5959 51.5034 19.4635 51.65 19.3879L51.7398 19.3406L51.8296 19.3879C51.9856 19.4682 52.0093 19.6148 52.0235 19.6857L52.0282 19.7094C52.2457 20.7117 52.6381 21.6809 52.9927 22.5083C53.8626 24.5697 55.5127 26.1725 57.3944 26.8013C58.8885 27.2978 60.4109 27.1323 61.7962 26.3238C63.4132 25.3782 64.7134 23.7329 65.6589 21.4304C66.3209 19.8134 66.77 18.064 67.205 16.3761C67.3563 15.7804 67.5076 15.1894 67.6683 14.6032C67.6731 14.589 67.6731 14.5795 67.6778 14.5653C67.692 14.4897 67.7204 14.362 67.848 14.2769L67.9757 14.1918L68.0939 14.2911C68.2168 14.3951 68.2357 14.5228 68.2452 14.6126C68.2499 14.6315 68.2499 14.6457 68.2546 14.6646C68.3397 15.0523 68.4532 15.4258 68.5998 15.8703C69.1908 17.7 70.2215 19.2508 71.5926 21.0143C72.4956 22.1774 73.4365 23.0521 74.4625 23.6856C76.8974 25.1844 79.2424 25.8747 81.6395 25.7943C81.6443 25.7565 81.6584 25.7565 81.6726 25.7565ZM82.7364 22.201C82.5568 22.201 82.4102 22.1017 82.3062 21.8984C82.0509 21.4067 81.9989 20.8866 81.9989 20.2058V20.1964V20.1869C82.1927 17.8324 82.8357 15.9554 83.9704 14.4519C84.3581 13.9412 84.8404 13.5252 85.4077 13.2179C86.1406 12.8207 86.845 12.8444 87.3935 13.2841C88.079 13.8325 88.3769 14.9341 88.1074 15.8986C87.7623 17.1279 86.9065 18.2484 86.0318 19.2791C85.8664 19.473 85.7056 19.6716 85.5401 19.8701C85.1666 20.3287 84.7742 20.8063 84.3487 21.2365C83.9326 21.6573 83.4787 21.9552 82.9634 22.149C82.883 22.1868 82.8073 22.201 82.7364 22.201ZM82.4007 20.2153C82.4007 20.8488 82.448 21.298 82.6655 21.7188C82.7175 21.8181 82.7317 21.8181 82.8263 21.785C83.2849 21.6147 83.6915 21.3453 84.065 20.967C84.4811 20.5462 84.864 20.0782 85.2328 19.629C85.3983 19.4304 85.559 19.2271 85.7292 19.0333C86.5708 18.0357 87.3982 16.9577 87.7244 15.8041C87.9514 15.0003 87.7055 14.0547 87.1476 13.6103C86.7268 13.2746 86.1926 13.2651 85.6063 13.5819C85.091 13.8609 84.6513 14.2391 84.2967 14.7072C83.2092 16.135 82.5898 17.9411 82.4007 20.2153ZM21.0268 17.005C20.9417 17.005 20.8566 16.9861 20.7951 16.9057C20.6864 16.7733 20.7621 16.6031 20.8046 16.5038C21.3909 15.18 22.1521 13.6528 23.3483 12.381C23.9109 11.7806 24.6437 11.2983 25.5893 10.9059C25.8919 10.783 26.2654 10.8066 26.6153 10.9768C27.0172 11.1706 27.315 11.5111 27.419 11.8893C27.4711 12.0831 27.4947 12.2959 27.49 12.5654V12.5701C27.4569 13.3408 27.263 13.998 26.9037 14.5795C26.5349 15.18 25.9959 15.6149 25.3056 15.8797C23.8731 16.4234 22.4216 16.7449 21.1923 16.9813C21.1497 16.9908 21.0883 17.005 21.0268 17.005ZM25.9959 11.2274C25.9061 11.2274 25.8163 11.2416 25.7406 11.2747C24.8517 11.6434 24.1662 12.0973 23.6414 12.6552C22.5161 13.8561 21.7833 15.3029 21.2159 16.57C22.4074 16.3383 23.7974 16.0263 25.1638 15.5062C25.769 15.2745 26.2418 14.8916 26.5633 14.3668C26.8848 13.8467 27.055 13.251 27.0881 12.5512C27.0928 12.3195 27.0739 12.1493 27.0314 11.9933C26.9604 11.7285 26.7288 11.478 26.4356 11.3361C26.2891 11.2652 26.1378 11.2274 25.9959 11.2274ZM37.3289 10.192C37.258 10.192 37.1729 10.1589 37.083 10.069C37.0783 10.0643 37.0736 10.0548 37.0641 10.0501C36.5393 9.62459 36.2131 9.15653 36.0712 8.61281C35.9767 8.25821 35.9767 7.8847 36.0712 7.47336C36.0902 7.40244 36.1327 7.20859 36.3029 7.14713C36.4684 7.08567 36.6292 7.20387 36.6859 7.25115C36.9838 7.47336 37.1965 7.78541 37.3431 8.19674C37.4944 8.62226 37.5322 9.05723 37.57 9.47802C37.5795 9.57258 37.5889 9.66714 37.5984 9.7617V9.77115V9.78062C37.5984 9.7948 37.5984 9.80899 37.6031 9.82317C37.6078 9.89409 37.6268 10.0548 37.4802 10.1447C37.4376 10.173 37.3856 10.192 37.3289 10.192ZM36.4589 7.5821C36.3833 7.92251 36.3786 8.22511 36.4589 8.50879C36.5724 8.92485 36.8041 9.27946 37.1823 9.61987C37.1776 9.58205 37.1776 9.54895 37.1729 9.51112C37.1398 9.11397 37.1019 8.70737 36.9696 8.32913C36.8514 8.0029 36.6859 7.75703 36.4589 7.5821Z" fill="white"/>
<path d="M8.77645 18.655C8.88992 18.6125 8.91356 18.5085 8.95138 18.4281C10.2516 15.6291 11.878 13.0004 13.5423 10.4C14.9606 8.18729 16.2183 5.65782 18.3081 3.98885C18.6059 3.75245 18.9274 3.5586 19.2915 3.4404C19.613 3.34111 19.9345 3.31273 20.2607 3.43093C20.7666 3.61532 21.003 4.05977 20.8659 4.57984C20.7855 4.88243 20.6106 5.13302 20.3978 5.35051C20.0811 5.67674 19.7595 6.00296 19.4333 6.31974C18.2371 7.497 17.3861 8.92013 16.5303 10.3385C15.684 11.7475 15.0032 13.2415 14.19 14.6694C12.0388 18.4328 9.92534 22.1963 7.90177 26.0543C6.9278 27.9171 5.2872 27.7469 4.64892 25.7517C3.64186 22.584 5.10753 19.3831 5.34393 16.2201C5.62288 12.5134 6.15714 8.30548 5.44794 4.63184C5.28247 3.78554 4.96569 3.00069 4.45507 2.3104C3.86408 1.5161 3.00831 1.14733 1.98233 1.59649C1.66083 1.73833 1.34878 1.89907 1.08875 2.14492C0.857074 2.36241 0.597039 2.38133 0.398464 2.21112C0.185705 2.03618 0.157333 1.73832 0.32754 1.46882C0.488292 1.22297 0.724694 1.04804 0.965821 0.896742C3.56621 -0.767507 5.58978 0.773818 6.62994 3.27965C8.19963 7.07149 8.91356 11.1328 8.819 15.232C8.79536 16.31 8.80481 17.3927 8.75281 18.4707C8.73389 18.5321 8.72917 18.5888 8.77645 18.655Z" fill="white"/>
<path d="M6.25185 27.5531C6.2093 27.5531 6.17147 27.5531 6.12892 27.5484C5.39136 27.4822 4.77672 26.8486 4.44576 25.8085C3.75548 23.6383 4.19991 21.4493 4.63015 19.3312C4.83818 18.3005 5.05567 17.2414 5.13132 16.206C5.17387 15.6339 5.22115 15.0523 5.27316 14.4566C5.54738 11.1612 5.83579 7.74761 5.24007 4.6697C5.07459 3.81866 4.75308 3.0669 4.28028 2.42862C3.86422 1.86599 3.14084 1.29863 2.04868 1.77616C1.77446 1.89436 1.46241 2.05039 1.21182 2.28679C0.913962 2.57047 0.535724 2.59884 0.252045 2.36244C-0.0363615 2.12131 -0.0836465 1.70998 0.143297 1.36011C0.32296 1.07643 0.587727 0.887306 0.83831 0.726554C1.92575 0.0315413 2.98009 -0.167036 3.95878 0.140282C5.12186 0.504337 6.1242 1.59177 6.79084 3.19929C8.35108 6.96749 9.09336 11.0146 8.99408 15.232C8.98462 15.6292 8.9799 16.031 8.97517 16.4282C8.97044 16.9199 8.96571 17.4258 8.95153 17.9317C10.2612 15.1989 11.8451 12.66 13.3627 10.2818C13.6511 9.83265 13.9395 9.35984 14.2185 8.90123C15.3343 7.06677 16.4832 5.17086 18.1711 3.82338C18.5162 3.54443 18.8614 3.35531 19.216 3.24184C19.6179 3.11418 19.9724 3.11419 20.3129 3.23239C20.918 3.44987 21.2065 3.99832 21.041 4.62241C20.9606 4.925 20.7951 5.19923 20.5209 5.48291C20.2088 5.80441 19.8873 6.13064 19.5517 6.45687C18.3838 7.60577 17.5281 9.02888 16.7007 10.4047L16.6818 10.4378C16.2137 11.2132 15.7882 12.0359 15.3769 12.8302C15.0459 13.4685 14.7055 14.1256 14.3414 14.7639C12.3131 18.3194 10.143 22.1585 8.05794 26.1394C7.5946 27.0472 6.93741 27.5531 6.25185 27.5531ZM2.82879 1.20881C3.50489 1.20881 4.12426 1.5445 4.60651 2.19696C5.11241 2.88251 5.46228 3.69099 5.63722 4.59876C6.2424 7.73341 5.95399 11.1707 5.67504 14.4944C5.62776 15.0854 5.57575 15.667 5.5332 16.2391C5.45282 17.2981 5.23533 18.3761 5.0273 19.4163C4.60651 21.4871 4.17627 23.6242 4.83346 25.695C5.10768 26.5602 5.60884 27.104 6.16675 27.156C6.72938 27.2032 7.292 26.773 7.71752 25.9645C9.80729 21.9741 11.9774 18.135 14.0105 14.5748C14.3698 13.946 14.7102 13.2888 15.0364 12.6552C15.4525 11.8562 15.878 11.0288 16.3508 10.244L16.3697 10.2109C17.2113 8.81613 18.0813 7.36937 19.2822 6.18737C19.6131 5.86114 19.9346 5.5349 20.2419 5.21813C20.4642 4.98646 20.5965 4.76898 20.658 4.53258C20.7667 4.11179 20.5918 3.77138 20.1805 3.62008C19.9299 3.53025 19.6557 3.53498 19.3436 3.63427C19.0363 3.73355 18.7337 3.89903 18.4264 4.14488C16.7952 5.4498 15.6605 7.31735 14.5636 9.11871C14.2847 9.57733 13.9963 10.0549 13.7031 10.5087C12.1193 12.9862 10.4597 15.6481 9.12646 18.5132L9.11228 18.551C9.07918 18.6361 9.01772 18.778 8.84278 18.8442L8.70094 18.8962L8.61111 18.7733C8.52601 18.6551 8.53073 18.5416 8.53546 18.4801C8.56856 17.7898 8.57329 17.0995 8.58274 16.4329C8.58747 16.031 8.5922 15.6339 8.60165 15.232C8.69621 11.0714 7.96811 7.07623 6.42679 3.36004C5.80742 1.86599 4.89019 0.858939 3.84531 0.52798C2.98009 0.258485 2.04395 0.438141 1.06053 1.06696C0.843039 1.20407 0.625551 1.36484 0.483712 1.58232C0.37024 1.76199 0.379702 1.9511 0.512086 2.05984C0.672837 2.19222 0.833585 2.10239 0.937601 1.99838C1.23546 1.71942 1.58534 1.54449 1.89266 1.41211C2.20943 1.275 2.5262 1.20881 2.82879 1.20881Z" fill="white"/>
<path d="M53.4087 5.88953C52.9029 5.88007 52.4017 5.62949 52.0376 5.01485C51.5034 4.1118 51.6594 2.79269 52.3922 2.14496C53.0683 1.54923 53.8059 1.4925 54.5387 1.92748C55.1061 2.26316 55.4276 2.87308 55.4323 3.7052C55.437 4.56097 55.1203 5.17087 54.5482 5.5633C54.2219 5.79497 53.8579 5.88953 53.4087 5.88953Z" fill="white"/>
<path d="M53.4088 6.01244C52.9833 6.00771 52.3828 5.8375 51.9337 5.08103C51.3663 4.12598 51.5412 2.74068 52.3166 2.05512C53.0164 1.43576 53.8107 1.35537 54.6097 1.82344C55.2291 2.1875 55.5553 2.83996 55.56 3.70518C55.5647 4.57513 55.248 5.23232 54.6239 5.66729C54.2787 5.90369 53.9005 6.00771 53.4088 6.01244ZM53.5932 1.76198C53.2055 1.76198 52.8367 1.918 52.4774 2.23477C51.7871 2.84468 51.6358 4.08815 52.1464 4.94864C52.4585 5.47345 52.8934 5.7524 53.4135 5.76186C53.8532 5.76186 54.1842 5.66729 54.4868 5.45926C55.0447 5.07629 55.3236 4.48057 55.3189 3.70045C55.3142 2.92033 55.0258 2.34352 54.4868 2.02674C54.1795 1.85181 53.8816 1.76198 53.5932 1.76198Z" fill="white"/>
</svg>
