<svg width="100" height="81" viewBox="0 0 100 81" fill="none" xmlns="http://www.w3.org/2000/svg">
<path d="M92.9003 42.5171C92.9003 42.425 94.9874 41.3123 95.2178 41.1345C95.9816 40.5551 96.6729 39.8901 97.2786 39.1527C98.7403 37.3685 99.8069 35.0048 99.978 32.6872C100.064 31.6009 99.9056 30.4816 99.3855 29.5203C98.8456 28.5064 98.0621 28.8093 97.8514 29.7969C97.1733 33.023 95.1322 36.0714 92.3275 37.8425C90.6946 38.8696 88.7194 39.4227 86.8101 39.1461C86.6191 39.1198 86.4216 39.0737 86.2899 38.9355C85.9937 38.6194 86.4084 38.1849 86.685 38.0532C86.9154 37.9478 87.1788 37.9281 87.429 37.8952C89.7136 37.6121 91.9851 36.1899 92.8871 34.0172C92.8871 29.7705 92.8871 25.5239 92.8871 21.2772C92.8871 18.7226 92.8871 16.168 92.8871 13.6134C92.8871 6.36444 86.5533 0.80097 79.4426 1.63714C79.0541 1.68322 55.1081 7.04918 76.9341 2.15069L11.634 16.8066C5.82038 17.7745 1.55396 22.8047 1.55396 28.6973V71.8291C1.55396 76.609 5.42534 80.4804 10.2053 80.4804C10.2053 80.4804 18.7513 80.4804 18.7711 80.4804C24.6835 80.4804 25.7304 75.1013 25.9147 73.1788V70.2226C25.9147 68.063 27.541 66.1734 29.6939 66.0417C32.0313 65.9035 33.9735 67.7602 33.9735 70.0646C33.9735 70.8744 33.9735 71.6908 33.9735 72.5006C33.9735 72.5006 33.967 80.4804 41.183 80.4804C43.1385 80.4804 45.1005 80.4804 47.0559 80.4804C49.8146 80.4804 52.5667 80.4804 55.3254 80.4804H55.5756C62.8575 80.4804 61.7053 76.2601 61.6065 71.3879C61.5605 69.2086 61.6658 66.9767 62.3308 64.8829C63.1999 62.1243 65.8203 60.1754 68.4012 59.1285C70.4686 58.2924 73.4446 57.5286 75.4066 59.01C76.7958 60.0569 76.8617 61.5646 76.9341 63.1711C77.0592 65.9562 76.888 68.7346 76.888 71.513C76.888 72.2175 76.8814 72.9615 76.4074 73.5409C76.1835 73.8174 75.8477 74.0018 75.4856 73.9952C74.5968 73.9755 74.2676 72.9615 74.2873 72.1451C74.3005 71.3879 74.4453 70.5583 74.0306 69.9263C73.6223 69.3074 72.8191 69.1099 72.0817 69.0111C71.2258 68.8926 70.2908 68.8465 69.5534 69.3074C68.4934 69.9724 68.2564 71.4077 68.2696 72.6587C68.2893 74.4956 68.658 76.4115 69.8102 77.8468C71.0941 79.4533 73.1812 80.2368 75.2288 80.4804C78.1785 80.8294 81.2071 80.1973 83.8868 78.9069C86.8627 77.4781 89.4766 75.2067 91.0436 72.3031C92.7949 69.0572 93.1307 65.3109 93.0254 61.6765C92.8937 57.0612 92.8937 52.4392 92.8937 47.8238C92.9003 47.8304 92.9003 42.5171 92.9003 42.5171Z" fill="white"/>
<path d="M91.3463 40.9633C91.3463 40.8711 93.4334 39.7584 93.6639 39.5807C94.4276 39.0013 95.1189 38.3363 95.7247 37.5989C97.1863 35.8146 98.2529 33.451 98.4241 31.1334C98.5097 30.0471 98.3517 28.9278 97.8315 27.9665C97.2917 26.9526 96.5082 27.2554 96.2975 28.243C95.6193 31.4692 93.5783 34.5176 90.7735 36.2887C89.1407 37.3158 87.1655 37.8688 85.2561 37.5923C85.0652 37.566 84.8677 37.5199 84.736 37.3816C84.4397 37.0656 84.8545 36.631 85.131 36.4994C85.3615 36.394 85.6248 36.3743 85.875 36.3413C88.1597 36.0582 90.4311 34.6361 91.3332 32.4634C91.3332 28.2167 91.3332 23.97 91.3332 19.7233C91.3332 17.1688 91.3332 14.6142 91.3332 12.0596C91.3332 4.81061 84.9993 -0.752863 77.8886 0.0833034C77.5002 0.129391 53.5542 5.49534 75.3801 0.596854L10.0801 15.2528C4.26643 16.2207 0 21.2508 0 27.1435V70.2752C0 75.0552 3.87139 78.9266 8.65137 78.9266C8.65137 78.9266 17.1974 78.9266 17.2171 78.9266C23.1296 78.9266 24.1764 73.5475 24.3608 71.625V68.6687C24.3608 66.5092 25.987 64.6196 28.14 64.4879C30.4773 64.3496 32.4196 66.2063 32.4196 68.5107C32.4196 69.3205 32.4196 70.137 32.4196 70.9468C32.4196 70.9468 32.413 78.9266 39.6291 78.9266C41.5845 78.9266 43.5465 78.9266 45.502 78.9266C48.2607 78.9266 51.0128 78.9266 53.7715 78.9266H54.0217C61.3036 78.9266 60.1514 74.7063 60.0526 69.8341C60.0065 67.6548 60.1119 65.4228 60.7768 63.3291C61.6459 60.5704 64.2664 58.6216 66.8473 57.5747C68.9147 56.7386 71.8906 55.9748 73.8526 57.4562C75.2419 58.503 75.3077 60.0108 75.3801 61.6173C75.5052 64.4023 75.334 67.1808 75.334 69.9592C75.334 70.6637 75.3275 71.4077 74.8534 71.9871C74.6296 72.2636 74.2938 72.4479 73.9316 72.4414C73.0428 72.4216 72.7136 71.4077 72.7334 70.5913C72.7465 69.8341 72.8914 69.0045 72.4766 68.3725C72.0684 67.7536 71.2651 67.556 70.5277 67.4573C69.6718 67.3388 68.7369 67.2927 67.9995 67.7536C66.9395 68.4185 66.7024 69.8539 66.7156 71.1048C66.7353 72.9417 67.104 74.8577 68.2562 76.293C69.5401 77.8995 71.6273 78.683 73.6749 78.9266C76.6245 79.2755 79.6531 78.6435 82.3328 77.353C85.3088 75.9243 87.9226 73.6528 89.4896 70.7493C91.241 67.5034 91.5768 63.7571 91.4714 60.1227C91.3397 55.5073 91.3397 50.8854 91.3397 46.27C91.3463 46.2766 91.3463 40.9633 91.3463 40.9633Z" fill="white"/>
</svg>
